<?xml version="1.0" encoding="utf-8"?>
<!-- Generator: Adobe Illustrator 21.0.1, SVG Export Plug-In . SVG Version: 6.00 Build 0)  -->
<svg version="1.1" id="Слой_1" xmlns="http://www.w3.org/2000/svg" xmlns:xlink="http://www.w3.org/1999/xlink" x="0px" y="0px"
	 viewBox="0 0 321.8 328.1" enable-background="new 0 0 321.8 328.1" xml:space="preserve">
<g>
	<defs>
		<circle id="SVGID_1_" cx="165" cy="170.9" r="132.5"/>
	</defs>
	<clipPath id="SVGID_2_">
		<use xlink:href="#SVGID_1_"  overflow="visible"/>
	</clipPath>
	<g id="ЛС" clip-path="url(#SVGID_2_)">
		<g>
			<g>
				<path fill="#EE393D" d="M223.3,214.2c0,0,80.6,12.2,81.5,128.6H127.9l-36.3-56.1l56.7-41.5L223.3,214.2z"/>
				<path fill="#4B2513" d="M209.1,98c0,0-28.1-35.3-65.3-13.6s-29.6,35-60.9,39.1c0,0,1.6,23.3,27.7,28.9s98.4-16.6,98.4-16.6
					l11.3,37.4c0,0,12.7-1.1,16.8-19.7C241.3,134.9,241.9,102.8,209.1,98z"/>
				<path fill="#BD2B2F" d="M229.2,215.8l-41.9,17.3c-2.9,3.8-5.6,7.9-7.8,12.2c-21.1,40.6-20.2,83.8-19,99.1h150.2
					C309.8,228,229.2,215.8,229.2,215.8z"/>
				<path fill="#ECB591" d="M110.8,152.4l23.4,78.3h16.6l3.5,16.1c0,0,40.2,6.9,75-31l-4-24.6l-19.2-71.9c0,0-9.5,20.1-36.1,24.1
					l-7.8,0.7l4.6-13C166.8,131.2,141.3,154.1,110.8,152.4z"/>
				<path fill="#FDDFC9" d="M111.4,154.7c0,0,34,8.7,32.8,49l0,2.4l12.9-2l3,10.6c0,0,13.8,1.7,22.7-15.5c0,0-2.1,11.1-12.8,15.5
					l9.5,30.7c0,0-16.6,3.9-30.3,1.9l-6.1-12.6l-9-3.9L111.4,154.7z"/>
				<path fill="#ECB591" d="M120.1,232.4c0,0,0.6-6.8,0-10.2c-0.6-3.5,5.4-3.2,7.8,2.2c2.4,5.4-5,10.3-5,10.3L120.1,232.4z"/>
				
					<ellipse transform="matrix(0.9725 -0.2328 0.2328 0.9725 -35.7146 45.3064)" fill="#231F20" cx="174.1" cy="174" rx="4.1" ry="5.2"/>
				
					<ellipse transform="matrix(0.9725 -0.2328 0.2328 0.9725 -39.2003 34.4678)" fill="#231F20" cx="126.4" cy="183.3" rx="4.1" ry="5.2"/>
				<circle fill="#ECB591" cx="221.5" cy="179.1" r="11.6"/>
				<path fill="#FDDFC9" d="M309.4,344.4c-5.3-12.2-24.2-21.3-46.7-21.3c-22.5,0-68.3,9-73.6,21.3H309.4z"/>
				<polygon fill="#231F20" points="134.8,263.6 133.3,247.3 129.5,266 				"/>
				<path fill="#FDDFC9" d="M84.8,301.6l19.4-23.9c0.5-0.6,0.8-1.2,0.9-2l3.7-25.5c0.5-3.8,2.8-9.3,5.1-12.4
					c3.7-5.1,9-11.5,12.2-11.7c4.2-0.2,16.1,6.8,20.8,9.7c1.2,0.7,3.3,2.7,3.3,4.1l-1.4,5.5c0,0.6,0.1,1.2,0.4,1.8l1.6,1.5
					c0.5,1-0.1,2.6-0.6,3.7l-4.6,11.2c-0.2,0.4-0.3,0.8-0.3,1.3l-0.4,5.5c-0.1,1.8-1.4,3.3-3.2,3.7l0,0c-1.4,0.3-2.9-0.2-3.9-1.3
					l-1.6-1.8c0,0-1.6,4.8-12.2,13.4c-9.3,7.5-3.4,31.1-8.7,48.2c-0.7,2.4-3.5,3.5-5.7,2.4l-22.2-11.8c-0.4-0.2-0.8-0.5-1.1-0.9
					c-1.5-1.7-5.2-7.4-2.4-19.1C84.2,302.6,84.5,302.1,84.8,301.6z"/>
				<path fill="#ECB591" d="M134.6,256c0.5,0,10.5,12.2,10.5,12.2l0.3-3.9L134.6,256z"/>
				<path fill="#ECB591" d="M133.7,246.4c0.5,0,15.1,9.6,15.1,9.6l1-2.4L133.7,246.4z"/>
				<polygon fill="#ECB591" points="136.4,238.3 148.8,243.8 148.8,246.4 132.9,237.2 				"/>
				<path fill="#818385" d="M122.7,343.6l-106.1,0.8c-5.6,0-10.6-3.3-12.8-8.4l-31.8-75.8c-3.8-9,2.8-19,12.6-19.1l106.1-0.8
					c5.6,0,10.6,3.3,12.8,8.4l31.8,75.8C139.1,333.6,132.5,343.6,122.7,343.6z"/>
				<path fill="#9C9EA1" d="M-27.6,248.7c-1.7,3.4-2,7.5-0.4,11.5L3.8,336c2.2,5.1,7.2,8.5,12.8,8.4l106.1-0.8c5.3,0,9.6-3,11.9-7
					L-27.6,248.7z"/>
				<path fill="#FFFFFF" d="M57.2,296.6c2.3,6.8-0.4,12.3-6,12.3c-5.6,0-12.1-5.5-14.4-12.2c-2.3-6.8,0.4-12.3,6-12.3
					C48.5,284.4,54.9,289.9,57.2,296.6z"/>
				<path fill="#FDDFC9" d="M147.1,254.9c0,0,2,1.6,2.4,1.8c0.3,0.2,0.4,6.3-3.4,7.8l-1.8-1L147.1,254.9z"/>
			</g>
		</g>
	</g>
	<use xlink:href="#SVGID_1_"  overflow="visible" fill="none" stroke="#ACACAC" stroke-width="6" stroke-miterlimit="10"/>
</g>
</svg>
