<?xml version="1.0" encoding="utf-8"?>
<!-- Generator: Adobe Illustrator 21.0.1, SVG Export Plug-In . SVG Version: 6.00 Build 0)  -->
<svg version="1.1" id="Слой_1" xmlns="http://www.w3.org/2000/svg" xmlns:xlink="http://www.w3.org/1999/xlink" x="0px" y="0px"
	 viewBox="0 0 640 480.7" enable-background="new 0 0 640 480.7" xml:space="preserve">
<g>
	
		<linearGradient id="SVGID_1_" gradientUnits="userSpaceOnUse" x1="320" y1="356.1107" x2="320" y2="5.9693" gradientTransform="matrix(-1 0 0 1 640 0)">
		<stop  offset="0" style="stop-color:#FFF0F2"/>
		<stop  offset="6.709559e-02" style="stop-color:#F5F1F4"/>
		<stop  offset="0.2806" style="stop-color:#DBF2F9"/>
		<stop  offset="0.5006" style="stop-color:#C9F3FC"/>
		<stop  offset="0.7288" style="stop-color:#BEF4FE"/>
		<stop  offset="0.9785" style="stop-color:#BAF4FF"/>
	</linearGradient>
	<polygon fill="url(#SVGID_1_)" points="0,480.7 640,480.7 640,1 0,1 	"/>
	<path fill="#FFFFFF" d="M391.5,288.7c11.6-20.6-13.3-20.7-16.1-11.1c-14.7-36-53.4-11.7-46.5,6.7c-6.3-8.1-16.9,0.9-12.8,5.8
		c-23.8-9-43.4,22-30.6,36.6C296.5,339.3,391.5,288.7,391.5,288.7z"/>
	<path fill="#FFFFFF" d="M599.6,335c19.6-4.7,5.2-20.3-2.4-16.5c13.9-30.1-23.7-40-31.1-25c1.4-8.6-10.4-10-11.1-4.6
		c-8.2-20-38.9-14.3-40.6,2.2C512.9,305.2,599.6,335,599.6,335z"/>
	<path fill="#BBBD53" d="M413.8,292.8c-0.7-11.8-7-11.9-6.8-6.3c-10-14.7-13.6-2.9-12.6,3.5c-4.5-5.1-8.6-1.3-8.8,1.6
		c-4.7-4-10.8-1.6-12.4,1.9c-3.6-12.4-10.7-8.1-8.9-0.4c-4.4-2.1-9.8-0.4-8.9,5.3c-5.6-1.3-7.1,1.7-4.6,5c-8.7,0.7-9.9,0.2-7.2,5.2
		c-7.7,1.8-11,5.8-7.1,8.9c3.9,3.1,62.2-12.4,62.2-12.4L413.8,292.8z"/>
	<path fill="#A1A348" d="M583,325.6c6.2-10,1.2-13.7-1.9-9.1c0.4-17.8-9.4-10.3-12.3-4.5c-0.6-6.8-6.3-6-8.1-3.9
		c-1.5-6-7.9-7.6-11.2-5.7c4.3-12.2-4.1-12.8-7-5.5c-2.4-4.3-7.7-6-10.3-0.9c-3.8-4.3-6.8-2.7-6.7,1.4c-7.5-4.5-8.2-5.6-8.9,0.1
		c-7.3-3-12.3-1.7-10.9,3.1c1.4,4.8,57.8,26.1,57.8,26.1L583,325.6z"/>
	<g opacity="0.8">
		<polygon fill="#E3662D" points="398.5,288.9 398.5,287.7 394.2,284.2 383.3,284.2 387.5,288.9 		"/>
		<polygon fill="#F5E2CE" points="398.5,297.4 385.7,297.4 385.7,288.9 394.2,288.9 398.5,288.9 		"/>
		<polygon fill="#EACDA5" points="387.5,297.4 379,297.4 379,288.9 383.3,285.4 387.5,288.9 		"/>
		<polygon fill="#C95B28" points="383.3,284.2 379,287.7 379,288.9 383.3,285.4 387.5,288.9 387.5,287.7 		"/>
		
			<rect x="394" y="291" transform="matrix(-1 -4.479895e-11 4.479895e-11 -1 790.1475 585.2885)" fill="#8D9EA6" width="2.2" height="3.3"/>
		
			<rect x="389.7" y="291" transform="matrix(-1 -4.479895e-11 4.479895e-11 -1 781.6691 585.2885)" fill="#8D9EA6" width="2.2" height="3.3"/>
		<rect x="381.8" y="292.8" fill="#C9B08E" width="2.2" height="4.6"/>
	</g>
	<g opacity="0.8">
		<polygon fill="#E3662D" points="478.5,291.2 478.5,290 482.8,286.6 493.7,286.6 489.4,291.2 		"/>
		<polygon fill="#F5E2CE" points="478.5,299.7 491.3,299.7 491.3,291.2 482.8,291.2 478.5,291.2 		"/>
		<polygon fill="#EACDA5" points="489.4,299.7 498,299.7 498,291.2 493.7,287.7 489.4,291.2 		"/>
		<polygon fill="#C95B28" points="493.7,286.6 498,290 498,291.2 493.7,287.7 489.4,291.2 489.4,290 		"/>
		<rect x="480.8" y="293.3" fill="#8D9EA6" width="2.2" height="3.3"/>
		<rect x="485" y="293.3" fill="#8D9EA6" width="2.2" height="3.3"/>
		<rect x="493" y="295.1" fill="#C9B08E" width="2.2" height="4.6"/>
	</g>
	<path fill="#C0C23A" d="M506.3,308.2c0.2-39.8-9.7-54.4-9.9,1.9L506.3,308.2z"/>
	<path fill="#C0C23A" d="M526.9,312.7c0.2-39.8-9.7-54.4-9.9,1.9L526.9,312.7z"/>
	<path fill="#C0C23A" d="M542.6,317.9c0.2-35.9-8.8-49.1-8.9,1.7L542.6,317.9z"/>
	<path fill="#C0C23A" d="M44.3,342.2c0.2-39.8-9.7-54.4-9.9,1.9L44.3,342.2z"/>
	<path fill="#C0C23A" d="M70.9,347.7c0.2-39.8-9.7-54.4-9.9,1.9L70.9,347.7z"/>
	<path fill="#C0C23A" d="M97.6,351.9c0.2-35.9-8.8-49.1-8.9,1.7L97.6,351.9z"/>
	<g opacity="0.8">
		<g>
			
				<rect x="429.9" y="281.9" transform="matrix(-1 -4.496016e-11 4.496016e-11 -1 868.4981 577.806)" fill="#F5DABC" width="8.7" height="14"/>
			<rect x="424.4" y="281.9" fill="#EACDA5" width="5.4" height="14"/>
			
				<rect x="429.9" y="281.9" transform="matrix(-1 -4.496016e-11 4.496016e-11 -1 868.4981 565.4544)" fill="#CFC8C0" width="8.7" height="1.6"/>
			<rect x="424.4" y="281.9" fill="#B5AFA8" width="5.4" height="1.6"/>
			
				<rect x="429.9" y="268.1" transform="matrix(-1 -4.496016e-11 4.496016e-11 -1 868.4981 550.1961)" fill="#F5DABC" width="8.7" height="14"/>
			<rect x="424.4" y="268.1" fill="#EACDA5" width="5.4" height="14"/>
			
				<rect x="429.9" y="268.1" transform="matrix(-1 -4.496016e-11 4.496016e-11 -1 868.4981 537.8441)" fill="#CFC8C0" width="8.7" height="1.6"/>
			<rect x="424.4" y="268.1" fill="#B5AFA8" width="5.4" height="1.6"/>
			
				<rect x="429.9" y="253.5" transform="matrix(-1 -4.496016e-11 4.496016e-11 -1 868.4981 521.7689)" fill="#F5DABC" width="8.7" height="14.8"/>
			<rect x="424.4" y="253.5" fill="#EACDA5" width="5.4" height="14.8"/>
			
				<rect x="429.9" y="254.3" transform="matrix(-1 -4.496016e-11 4.496016e-11 -1 868.4981 510.2347)" fill="#CFC8C0" width="8.7" height="1.6"/>
			<rect x="424.4" y="254.3" fill="#B5AFA8" width="5.4" height="1.6"/>
			<path fill="#8D9EA6" d="M433.2,265.7h2.2v-4.8c0-0.6-0.5-1.1-1.1-1.1l0,0c-0.6,0-1.1,0.5-1.1,1.1V265.7z"/>
			<path fill="#8D9EA6" d="M426.2,265.7h1.6v-5.1c0-0.5-0.4-0.8-0.8-0.8l0,0c-0.5,0-0.8,0.4-0.8,0.8V265.7z"/>
			<polygon fill="#E3662D" points="438.6,253.5 431.7,232.7 429.9,253.5 			"/>
			<polygon fill="#C95B28" points="431.7,232.7 424.4,253.5 429.9,253.5 			"/>
		</g>
		<g>
			<polygon fill="#E3662D" points="428.9,283.4 428.9,282 423.6,277.7 410,277.7 415.3,283.4 			"/>
			<polygon fill="#F5E2CE" points="428.9,294.1 413,294.1 413,283.4 423.6,283.4 428.9,283.4 			"/>
			<polygon fill="#EACDA5" points="415.3,294.1 404.7,294.1 404.7,283.4 410,279.1 415.3,283.4 			"/>
			<polygon fill="#C95B28" points="410,277.7 404.7,282 404.7,283.4 410,279.1 415.3,283.4 415.3,282 			"/>
			
				<rect x="423.3" y="286.1" transform="matrix(-1 -4.493795e-11 4.493795e-11 -1 849.3619 576.2469)" fill="#8D9EA6" width="2.8" height="4.1"/>
			
				<rect x="418" y="286.1" transform="matrix(-1 -4.493973e-11 4.493973e-11 -1 838.816 576.2469)" fill="#8D9EA6" width="2.8" height="4.1"/>
			<rect x="408.2" y="288.3" fill="#C9B08E" width="2.7" height="5.7"/>
		</g>
		<g>
			<polygon fill="#E3662D" points="459,283.9 459,282.5 453.7,278.2 440.1,278.2 445.4,283.9 			"/>
			<polygon fill="#F5E2CE" points="459,294.6 443.1,294.6 443.1,283.9 453.7,283.9 459,283.9 			"/>
			<polygon fill="#EACDA5" points="445.4,294.6 434.8,294.6 434.8,283.9 440.1,279.6 445.4,283.9 			"/>
			<polygon fill="#C95B28" points="440.1,278.2 434.8,282.5 434.8,283.9 440.1,279.6 445.4,283.9 445.4,282.5 			"/>
			
				<rect x="453.4" y="286.6" transform="matrix(-1 -4.493973e-11 4.493973e-11 -1 909.5816 577.2675)" fill="#8D9EA6" width="2.8" height="4.1"/>
			
				<rect x="448.1" y="286.6" transform="matrix(-1 -4.492996e-11 4.492996e-11 -1 899.0362 577.2675)" fill="#8D9EA6" width="2.8" height="4.1"/>
			<rect x="438.3" y="288.8" fill="#C9B08E" width="2.7" height="5.7"/>
		</g>
	</g>
	<path fill="#D5D624" d="M637.7,342c0,0-261.5-144.4-453,52.8L637.7,342z"/>
	<path fill="#C3C421" d="M640,344.3v8.3l-455.3,54.6C356.8,224.9,583.5,317,640,344.3z"/>
	<path fill="#DEDE83" d="M417.5,353.7l-25,0.5c64-17.6,58.9-50.2,73.4-61.6c1.5,0.1,2.9,0.3,4.4,0.4
		C459.1,301.5,461.8,340.6,417.5,353.7z"/>
	<path fill="#B7B820" d="M622.8,335.7c5.8,0,11.5,0,17.2,0.1v144.9H80.9C83.4,400.5,325,335.7,622.8,335.7z"/>
	<path fill="#A8A91D" d="M622.8,341.2c5.8,0,11.5,0,17.2,0.1v139.4H80.9C83.4,403.5,325,341.2,622.8,341.2z"/>
	<path fill="#D1D17B" d="M397.4,348.9c4.2-0.5,8.5-1,12.8-1.5c22.1,24.5,145.5,44.5,145.5,44.5l-81.3,2
		C425.3,381,403.3,356.6,397.4,348.9z"/>
	<path fill="#B7B820" d="M0,480.7l0-144.9c289.7,2.4,522.1,66.3,524.6,144.9H0z"/>
	<path fill="#A8A91D" d="M0,480.7l0-139.4c289.7,2.4,522.1,63.8,524.6,139.4H0z"/>
</g>
</svg>
