<?xml version="1.0" encoding="utf-8"?>
<!-- Generator: Adobe Illustrator 21.0.1, SVG Export Plug-In . SVG Version: 6.00 Build 0)  -->
<svg version="1.1" id="objects" xmlns="http://www.w3.org/2000/svg" xmlns:xlink="http://www.w3.org/1999/xlink" x="0px" y="0px"
	 viewBox="0 0 250.5 315.6" enable-background="new 0 0 250.5 315.6" xml:space="preserve">
<g id="XMLID_289_">
	<g id="XMLID_150_">
		<path id="XMLID_88_" fill="#94679B" d="M84.5,115.9c0,0,32.7,15.9,71.3,0c0,0-2.1,13-14.7,19c0,0,15.7,37.8,29.8,50.1
			c14.2,12.3,19.6,63.5,16.5,80c0,0-21.3-4-33.4,6s-37.9,3-42.3-6c-4.4-9-13.8-16.7-23.8-18.1c-10-1.4,2.8,16.4-20.8,15.7
			C43.4,262,38.7,229,38.7,229s40.9-17.2,54.3-57.6s11.8-34.1,11.8-34.1S89.3,139.5,84.5,115.9z"/>
		<g id="XMLID_157_">
			<path id="XMLID_158_" fill="#724B7A" d="M67,262.7c19.5,0.5,14.2-11.4,17.4-14.9c0,0,0,0,0,0s14.2-30,16.7-48.8
				c0,0-9,26.3-28.3,44.3c-9.1,8.5-15.2,12.7-19.1,14.8C57.3,260.8,61.7,262.6,67,262.7z"/>
			<path id="XMLID_159_" fill="#724B7A" d="M113.5,267.6c3.5,3.7,10.4,6.7,17.8,7.8c-0.2-4.2-1.2-9.8-1.9-16.9
				c-1.5-15.5,0-33.5,0-33.5S114.1,253.8,113.5,267.6z"/>
		</g>
		<path id="XMLID_160_" fill="#724B7A" d="M168.1,265c0,0-3.5-23.5-5.5-22.8c-2,0.7-8.7,28.8-8.7,28.8
			C158,267.7,163.1,265.9,168.1,265L168.1,265z"/>
		<path id="XMLID_162_" fill="#724B7A" d="M154.4,116.5L154.4,116.5c-33.5,13.1-62.2,2.7-68.5,0c0.1,0.2,9.1,17.4,34.3,17.4
			C145.4,134,154.4,116.5,154.4,116.5z"/>
		<path id="XMLID_83_" fill="#724B7A" d="M136.1,151c0,0,21.3,33.3,23.6,44.9c2.4,11.6,1.8,42.1-1.7,36.6s-11.9-25.3-9.4-33.5
			C151.1,190.8,136.1,151,136.1,151z"/>
	</g>
	<g id="XMLID_277_">
		<g id="XMLID_276_">
			<g id="XMLID_275_">
				<path id="XMLID_46_" fill="#0AACC2" d="M153.7,287.5c0,0,11.7,4.6,11.7,12.9c0,5.2-22.6,2.9-22.8,1c-0.1-1.9-0.2-10,2.3-12
					C147.4,287.4,153.7,287.5,153.7,287.5z"/>
				<path id="XMLID_171_" fill="#1596A0" d="M146.2,301.4c-0.1-1.9-0.2-10,2.3-12c1.3-1,3.7-1.5,5.6-1.8c-0.3-0.1-0.5-0.2-0.5-0.2
					s-6.2,0-8.8,2c-2.5,2-2.4,10.1-2.3,12c0.1,1.1,8.2,2.4,14.7,2.2C151.8,303.4,146.3,302.3,146.2,301.4z"/>
			</g>
			<g id="XMLID_274_">
				<path id="XMLID_45_" fill="#0AACC2" d="M114.2,289.1c0,0,8.6,6.5,8.6,12.2c0,5.6-21.1,4.6-22.6-0.1s0.4-9.9,4.6-13.6
					C108.9,283.8,114.2,289.1,114.2,289.1z"/>
				<path id="XMLID_169_" fill="#1596A0" d="M103.8,301.1c-1.5-4.8,0.4-9.9,4.6-13.6c0.5-0.5,1.1-0.8,1.6-1c-1.7-0.5-3.6-0.5-5.3,1
					c-4.1,3.7-6,8.8-4.6,13.6c0.9,2.8,8.3,4.3,14.5,3.9C109.5,304.8,104.5,303.4,103.8,301.1z"/>
			</g>
		</g>
		<g id="XMLID_273_">
			<path id="XMLID_47_" fill="#514636" d="M108,212.2c0,0,1.7,38.5-4,75.1c0,0,3.6,5,12.4,2.7c0,0,7.1-30.7,12-60.9
				c0,0,5.7-5.9,12.5-2.7c0,0,6.8,17.4,2.7,64.3c0,0,6.7,3.1,12.1-3.2c0,0,6.9-45.1-2.7-80.2C149.4,194.2,108,212.2,108,212.2z"/>
			<g id="XMLID_166_">
				<path id="XMLID_170_" fill="#3F3324" d="M107.2,287.3c5.6-36.6,4-75.1,4-75.1s20.5-8.9,34-9.6c-13-0.8-37.1,9.6-37.1,9.6
					s1.7,38.5-4,75.1c0,0,2.9,3.9,9.7,3.2C109.1,290,107.2,287.3,107.2,287.3z"/>
				<path id="XMLID_172_" fill="#3F3324" d="M146.8,290.7c4-46.9-2.7-64.3-2.7-64.3c-2.1-1-4-1.1-5.8-0.8c0.8,0.1,1.7,0.4,2.6,0.8
					c0,0,6.8,17.4,2.7,64.3c0,0,2.4,1.1,5.5,0.6C147.7,291.1,146.8,290.7,146.8,290.7z"/>
			</g>
		</g>
	</g>
	<g id="XMLID_279_">
		<g id="XMLID_280_">
			<g id="XMLID_272_">
				
					<ellipse id="XMLID_48_" transform="matrix(6.451893e-02 -0.9979 0.9979 6.451893e-02 -115.6596 219.5235)" fill="#F9AF9B" cx="59.3" cy="171.5" rx="7.9" ry="9.8"/>
				<path id="XMLID_168_" fill="#E29481" d="M59.8,163.6c-1-0.1-2,0-2.9,0.2c4.8,0.8,8.2,4.4,8,8.3c-0.2,3.5-3.3,6.3-7.4,7.1
					c0.4,0.1,0.9,0.1,1.3,0.2c5.4,0.4,10-2.9,10.3-7.2C69.3,167.7,65.2,163.9,59.8,163.6z"/>
			</g>
			<g id="XMLID_271_">
				
					<ellipse id="XMLID_49_" transform="matrix(0.4193 -0.9079 0.9079 0.4193 -16.2173 239.5499)" fill="#F9AF9B" cx="179.1" cy="132.5" rx="9.8" ry="7.9"/>
				<path id="XMLID_167_" fill="#E29481" d="M178.3,140.6c-4-1.8-5.3-7.3-3-12.2c1.2-2.5,3-4.4,5.1-5.4c-3.3,0.1-6.6,2.4-8.4,6.2
					c-2.3,4.9-0.9,10.4,3,12.2c1.9,0.9,4.2,0.7,6.2-0.2C180.2,141.2,179.2,141,178.3,140.6z"/>
			</g>
		</g>
		<g id="XMLID_270_">
			<path id="XMLID_53_" fill="#EE3A3D" d="M170.2,138.6c0,0-5.1,17.2-29.8-3.2c-4.3-6.6-21-8.3-21-8.3s-5.4,2.7-10.4,6.6
				c-3.2,1.6-7,5.2-10,13.2c-9.3,25.5-34.3,17.5-34.3,17.5l0.9,13.6c19.6,4.8,31.8-5.2,39.2-17.1c1.3,11.3,2.7,28.1,2,53.1
				c0,0,37.9,0.5,48.8-6.1c0,0-0.1-22.9-10.2-57.2c10.5,7.8,26.7,13.5,39.1-10.7L170.2,138.6z"/>
			<g id="XMLID_44_">
				<g>
					<path id="XMLID_70_" fill="#BD2B2E" d="M65.4,173.7l0.3,4.2c19.5,4.8,31.7-5.2,39.1-16.9C96.4,170.6,82.1,177.8,65.4,173.7z"/>
					<path id="XMLID_69_" fill="#BD2B2E" d="M108.7,155.9c-1.1,1.7-2.3,3.4-3.8,5c1.3,11.3,2.7,28.1,2,53.1c0,0,1.9,0,5.1,0
						C112.7,188.9,110,167.2,108.7,155.9z"/>
					<path id="XMLID_68_" fill="#BD2B2E" d="M143.7,143.5c0.7,2.5,1.4,4.9,2.1,7.4c6.8,5,15.9,9.1,24.9,4.8
						C160.6,156.8,149.9,148.2,143.7,143.5z"/>
				</g>
			</g>
		</g>
		<g id="XMLID_278_">
			<path id="XMLID_52_" fill="#F9AF9B" d="M118.6,124.6c0,0-1.5,4.6-1.3,5.8c0.4,3.9,7.8,6.7,11.7,2.2c2.5-3,0.1-10.5,0.1-10.5
				L118.6,124.6z"/>
			<path id="XMLID_281_" fill="#E29481" d="M121.1,128.5l8.8-2.1c-0.3-2.3-0.9-4.3-0.9-4.3l-10.4,2.4c0,0-1.5,4.6-1.3,5.8
				c0.2,1.4,1.1,2.6,2.5,3.4C120,132.1,121.1,128.5,121.1,128.5z"/>
		</g>
	</g>
	<g id="XMLID_266_">
		<g id="XMLID_43_">
			<path id="XMLID_87_" fill="#94679B" d="M71.9,70.3c0,0-8.5-15.6-13.1-17.2C54.3,51.5,58,65,54.1,68.2S46,69.4,46,69.4
				s7.8-0.7,5.3-8c-2.5-7.3-1.6-35.6,12.6-30.8s42.4,19.8,42.4,19.8L71.9,70.3z"/>
			<path id="XMLID_178_" fill="#724B7A" d="M73.5,65.6c0,0-9.6-15.4-14.1-17c-4.5-1.6-1.7,14.7-5.6,17.9c-3.9,3.2-7.9,2.8-7.9,2.8
				s4.2,2.1,8.1-1.1c3.9-3.2,0.2-16.7,4.7-15.1c4.5,1.6,13.1,17.2,13.1,17.2l34.4-20c0,0-0.8-0.4-2.2-1.2L73.5,65.6z"/>
		</g>
		<g id="XMLID_265_">
			<path id="XMLID_90_" fill="#E2CC6D" d="M93.5,43.8c-12,5.1-21.2,17.3-24.3,21.9c1.6,2.6,2.7,4.6,2.7,4.6l34.4-20
				C106.2,50.4,100.8,47.5,93.5,43.8z"/>
			<path id="XMLID_177_" fill="#C9B55D" d="M77.9,66.8c0,0-1.5-2.7-3.2-5.4c2-2.9,6.6-9.1,12.8-14.5c-9,5.9-15.8,14.9-18.4,18.7
				c1.6,2.6,2.7,4.6,2.7,4.6L77.9,66.8L77.9,66.8z"/>
		</g>
		<g id="XMLID_263_">
			
				<ellipse id="XMLID_85_" transform="matrix(0.8485 -0.5292 0.5292 0.8485 -18.7556 57.5527)" fill="#94679B" cx="91.1" cy="61.5" rx="37.5" ry="5.3"/>
			
				<ellipse id="XMLID_55_" transform="matrix(0.8485 -0.5292 0.5292 0.8485 -18.4066 56.7555)" fill="#724B7A" cx="89.9" cy="60.5" rx="18.1" ry="2.5"/>
		</g>
	</g>
	<g id="XMLID_269_">
		
			<rect id="XMLID_86_" x="182.6" y="88.7" transform="matrix(0.9204 -0.391 0.391 0.9204 -39.7551 82.9828)" fill="#FFCC66" width="2.7" height="100.9"/>
		<g id="XMLID_267_">
			
				<ellipse id="XMLID_89_" transform="matrix(0.9204 -0.391 0.391 0.9204 -21.3841 70.3229)" fill="#6CCCD3" cx="162" cy="87.7" rx="8.7" ry="8.7"/>
			<path id="XMLID_180_" fill="#4DB3B5" d="M168.2,91.8c-4.4,1.9-9.5-0.2-11.4-4.6c-0.9-2.1-0.9-4.4-0.2-6.4
				c-3,2.4-4.2,6.5-2.6,10.2c1.9,4.4,7,6.5,11.4,4.6c2.3-1,3.9-2.8,4.7-5C169.6,91.1,168.9,91.5,168.2,91.8z"/>
		</g>
		<g id="XMLID_268_">
			<path id="XMLID_91_" fill="#FFCC66" d="M168.5,96.7c-1.2,1.2-3.2,2.8-6.1,2.6c-2.8-0.2-6.9-2.5-2.8-4.7c4.1-2.1,10.6-4.5,9.2-9.7
				c-1.4-5.2-6.7-8.9-6.7-8.9s7,0.4,10.3,4.6C175.9,85.2,175.2,90.1,168.5,96.7z"/>
			<g id="XMLID_179_">
				<path id="XMLID_181_" fill="#C9B55D" d="M168.8,84.8c0.2,0.8,0.2,1.5,0.1,2.2c1-1.3,1.5-2.7,1.1-4.6c-0.6-2.1-1.8-4-3.1-5.5
					c-2.5-0.9-4.8-1-4.8-1S167.4,79.6,168.8,84.8z"/>
				<path id="XMLID_182_" fill="#C9B55D" d="M169.6,94.2c-1.2,1.2-3.2,2.8-6.1,2.6c-1.6-0.1-3.7-1-4.3-2.1c-3.4,2.1,0.4,4.2,3.2,4.5
					c2.8,0.2,4.9-1.4,6.1-2.6c2.8-2.8,4.6-5.3,5.4-7.6C172.9,90.6,171.5,92.4,169.6,94.2z"/>
			</g>
		</g>
	</g>
	<g id="XMLID_285_">
		<g id="XMLID_282_">
			<path id="XMLID_56_" fill="#88371A" d="M87.7,83c0,0-6.5-7.9-4.7-16.9s33.1-19,37.8-24.6c4.7-5.6,0.1-12.8,0.1-12.8
				s26.1,6.1,18.5,32.4C131.6,87.4,87.7,83,87.7,83z"/>
			<path id="XMLID_176_" fill="#702A14" d="M93.3,68.2c1.7-9,28.7-17.9,33.4-23.6c4.7-5.6-5.9-16-5.9-16s4.6,7.2-0.1,12.8
				c-4.7,5.6-36.1,15.6-37.8,24.6c-1.7,9,4.7,16.9,4.7,16.9s3.7,0.4,9.1,0.3C94.9,80.4,92.1,74.6,93.3,68.2z"/>
		</g>
		<g id="XMLID_283_">
			<path id="XMLID_163_" fill="#F9AF9B" d="M143.2,83.9c0,0-51.2,0.7-51.5,5.1c-0.1,1.1,0.2,3.2,0.7,6c-0.9-0.1-1.8,0.1-2.7,0.4
				c-3.3,1.3-4.8,5.3-3.3,8.8c1.4,3.5,5.3,5.3,8.6,4c0.3-0.1,0.6-0.3,0.9-0.5c2,5.9,4.7,11.7,7.5,14.7c6.7,7,29.6,4.9,38.3-3.8
				C152,108.1,143.2,83.9,143.2,83.9z"/>
			<g id="XMLID_161_">
				<path id="XMLID_164_" fill="#E29481" d="M92.6,93.1c0.9-0.4,1.8-0.5,2.7-0.4c-0.5-2.3-0.7-4.2-0.7-5.3c-1.8,0.5-2.8,1-2.9,1.6
					c-0.1,0.9,0.1,2.4,0.4,4.4C92.2,93.3,92.4,93.2,92.6,93.1z"/>
				<path id="XMLID_165_" fill="#E29481" d="M106.3,120.1c-2.9-3-5.5-8.7-7.5-14.7c-0.3,0.2-0.6,0.3-0.9,0.5c-3.3,1.3-7.1-0.4-8.6-4
					c-1-2.3-0.6-4.9,0.6-6.7c-0.1,0-0.2,0-0.2,0.1c-3.3,1.3-4.8,5.3-3.3,8.8c1.4,3.5,5.3,5.3,8.6,4c0.3-0.1,0.6-0.3,0.9-0.5
					c2,5.9,4.7,11.7,7.5,14.7c6.6,6.9,29,4.9,37.9-3.5C131.1,125.4,112.2,126.4,106.3,120.1z"/>
			</g>
		</g>
		<g id="XMLID_284_">
			<path id="XMLID_57_" fill="#4E5760" d="M95.8,76.7c0,0-7.1,2.5-10.8,6.9c-1.8,2.2,2.2,10.6,5.3,11.2c3.2,0.6,8.3-1.5,10.7-1.9
				C103.4,92.5,95.8,76.7,95.8,76.7z"/>
			<path id="XMLID_102_" fill="#4E5760" d="M104.2,67c0,0,19-8.5,39-7.3c4.9,0.3,9.3,23.4,5.7,26c-3.7,2.7-23.7,8.8-37.7,10.4
				c-3.9,0.5-7.7,0.5-8.9-0.9c-2.4-3-6.6-14.1-6.6-20.9C95.8,72,102.2,68,104.2,67z"/>
			<path id="XMLID_104_" fill="#394249" d="M104.2,67c-2,1.1-8.4,5.1-8.4,7.3c0,6.8,4.2,17.9,6.6,20.9c1.2,1.4,5,1.4,8.9,0.9
				C108.1,92.6,102.2,70.4,104.2,67z"/>
			<path id="XMLID_105_" fill="#0DCEFE" d="M120.5,63.8c1.2,0.4,12.5-1.1,13.1-2.1c0.6-1-0.3-1.7-0.6-1.9c-4.7,0.4-9.2,1.2-13.2,2.1
				C119.7,62,119.3,63.4,120.5,63.8z"/>
		</g>
		<path id="XMLID_54_" fill="#912323" d="M119.1,111.4c0,0,0.6-10.1,5.6-10.9s7.1,8.1,7.1,8.1L119.1,111.4z"/>
		<path fill="#DD1919" d="M119.1,111.4l11-2.4c-1.8-3.8-6.4-5-9.1-5.3C119.4,106.9,119.1,111.4,119.1,111.4z"/>
	</g>
	<g id="XMLID_286_">
		<path id="XMLID_287_" fill="#FFCC66" d="M30.5,118.8c0,0,6.7-2.3,5.7-13.5c0,0,3.7,13.4,15.3,11.3c-5.8,2.3-10.5,10.3-8.3,18.4
			C43.1,135,38.8,118,30.5,118.8z"/>
		<path id="XMLID_288_" fill="#FFCC66" d="M19.2,153.6c0,0,8.7-6.5,7.7-17.7c0,0,3.7,13.4,15.3,11.3c-5.8,2.3-10.5,10.3-8.3,18.4
			C33.9,165.6,27.5,152.8,19.2,153.6z"/>
	</g>
	<g>
		
			<ellipse id="XMLID_29_" transform="matrix(0.9702 -0.2424 0.2424 0.9702 -15.6896 31.4828)" fill="#AFAFAF" cx="120.1" cy="79.5" rx="4.3" ry="5.7"/>
		<path fill="#EEFFFD" d="M124.3,81.5c-2.2-3.8-6.5-2.7-8.6-1.9c0,0.3,0.1,0.6,0.2,1c0.8,3,3.2,5,5.5,4.5
			C123,84.6,124,83.3,124.3,81.5z"/>
		
			<ellipse id="XMLID_3_" transform="matrix(0.9702 -0.2424 0.2424 0.9702 -14.0973 35.7575)" fill="#AFAFAF" cx="138.3" cy="75.2" rx="4.3" ry="5.7"/>
		<path fill="#EEFFFD" d="M142.5,77.2c-2.2-3.8-6.5-2.7-8.6-1.9c0,0.3,0.1,0.6,0.2,1c0.8,3,3.2,5,5.5,4.5
			C141.1,80.3,142.2,78.9,142.5,77.2z"/>
	</g>
</g>
</svg>
