<?xml version="1.0" encoding="UTF-8" standalone="no"?>
<!-- Created with Inkscape (http://www.inkscape.org/) -->
<svg xmlns:rdf="http://www.w3.org/1999/02/22-rdf-syntax-ns#" xmlns="http://www.w3.org/2000/svg" height="210mm" width="297mm" version="1.1" xmlns:cc="http://creativecommons.org/ns#" xmlns:dc="http://purl.org/dc/elements/1.1/" viewBox="0 0 297 210">
 <metadata>
  <rdf:RDF>
   <cc:Work rdf:about="">
    <dc:format>image/svg+xml</dc:format>
    <dc:type rdf:resource="http://purl.org/dc/dcmitype/StillImage"/>
    <dc:title/>
   </cc:Work>
  </rdf:RDF>
 </metadata>
 <g transform="matrix(.46606 0 0 .43535 .69510 0.814)">
  <linearGradient id="SVGID_1_" y2="5.9693" gradientUnits="userSpaceOnUse" y1="356.11" gradientTransform="matrix(-1,0,0,1,640,0)" x2="320" x1="320">
   <stop stop-color="#FFF0F2" offset="0"/>
   <stop stop-color="#F5F1F4" offset=".067096"/>
   <stop stop-color="#DBF2F9" offset=".2806"/>
   <stop stop-color="#C9F3FC" offset=".5006"/>
   <stop stop-color="#BEF4FE" offset=".7288"/>
   <stop stop-color="#BAF4FF" offset=".9785"/>
  </linearGradient>
  <polygon points="640 480.7 640 1 0 1 0 480.7" fill="url(#SVGID_1_)"/>
  <path fill="#fff" d="m391.5 288.7c11.6-20.6-13.3-20.7-16.1-11.1-14.7-36-53.4-11.7-46.5 6.7-6.3-8.1-16.9 0.9-12.8 5.8-23.8-9-43.4 22-30.6 36.6 11 12.6 106-38 106-38z"/>
  <path fill="#fff" d="m599.6 335c19.6-4.7 5.2-20.3-2.4-16.5 13.9-30.1-23.7-40-31.1-25 1.4-8.6-10.4-10-11.1-4.6-8.2-20-38.9-14.3-40.6 2.2-1.5 14.1 85.2 43.9 85.2 43.9z"/>
  <path fill="#bbbd53" d="m413.8 292.8c-0.7-11.8-7-11.9-6.8-6.3-10-14.7-13.6-2.9-12.6 3.5-4.5-5.1-8.6-1.3-8.8 1.6-4.7-4-10.8-1.6-12.4 1.9-3.6-12.4-10.7-8.1-8.9-0.4-4.4-2.1-9.8-0.4-8.9 5.3-5.6-1.3-7.1 1.7-4.6 5-8.7 0.7-9.9 0.2-7.2 5.2-7.7 1.8-11 5.8-7.1 8.9s62.2-12.4 62.2-12.4l15.1-12.3z"/>
  <path fill="#a1a348" d="m583 325.6c6.2-10 1.2-13.7-1.9-9.1 0.4-17.8-9.4-10.3-12.3-4.5-0.6-6.8-6.3-6-8.1-3.9-1.5-6-7.9-7.6-11.2-5.7 4.3-12.2-4.1-12.8-7-5.5-2.4-4.3-7.7-6-10.3-0.9-3.8-4.3-6.8-2.7-6.7 1.4-7.5-4.5-8.2-5.6-8.9 0.1-7.3-3-12.3-1.7-10.9 3.1s57.8 26.1 57.8 26.1l19.5-1.1z"/>
  <g opacity=".8">
   <polygon points="394.2 284.2 383.3 284.2 387.5 288.9 398.5 288.9 398.5 287.7" fill="#e3662d"/>
   <polygon points="385.7 288.9 394.2 288.9 398.5 288.9 398.5 297.4 385.7 297.4" fill="#f5e2ce"/>
   <polygon points="379 288.9 383.3 285.4 387.5 288.9 387.5 297.4 379 297.4" fill="#eacda5"/>
   <polygon points="387.5 287.7 383.3 284.2 379 287.7 379 288.9 383.3 285.4 387.5 288.9" fill="#c95b28"/>
   <rect transform="matrix(-1 0 0 -1 790.15 585.29)" height="3.3" width="2.2" y="291" x="394" fill="#8d9ea6"/>
   <rect transform="matrix(-1 0 0 -1 781.67 585.29)" height="3.3" width="2.2" y="291" x="389.7" fill="#8d9ea6"/>
   <rect height="4.6" width="2.2" y="292.8" x="381.8" fill="#c9b08e"/>
  </g>
  <g opacity=".8">
   <polygon points="482.8 286.6 493.7 286.6 489.4 291.2 478.5 291.2 478.5 290" fill="#e3662d"/>
   <polygon points="491.3 291.2 482.8 291.2 478.5 291.2 478.5 299.7 491.3 299.7" fill="#f5e2ce"/>
   <polygon points="498 291.2 493.7 287.7 489.4 291.2 489.4 299.7 498 299.7" fill="#eacda5"/>
   <polygon points="489.4 290 493.7 286.6 498 290 498 291.2 493.7 287.7 489.4 291.2" fill="#c95b28"/>
   <rect height="3.3" width="2.2" y="293.3" x="480.8" fill="#8d9ea6"/>
   <rect height="3.3" width="2.2" y="293.3" x="485" fill="#8d9ea6"/>
   <rect height="4.6" width="2.2" y="295.1" x="493" fill="#c9b08e"/>
  </g>
  <g fill="#c0c23a">
   <path d="m506.3 308.2c0.2-39.8-9.7-54.4-9.9 1.9l9.9-1.9z"/>
   <path d="m526.9 312.7c0.2-39.8-9.7-54.4-9.9 1.9l9.9-1.9z"/>
   <path d="m542.6 317.9c0.2-35.9-8.8-49.1-8.9 1.7l8.9-1.7z"/>
   <path d="m44.3 342.2c0.2-39.8-9.7-54.4-9.9 1.9l9.9-1.9z"/>
   <path d="m70.9 347.7c0.2-39.8-9.7-54.4-9.9 1.9l9.9-1.9z"/>
   <path d="m97.6 351.9c0.2-35.9-8.8-49.1-8.9 1.7l8.9-1.7z"/>
  </g>
  <g opacity=".8">
   <rect transform="matrix(-1 0 0 -1 868.5 577.81)" height="14" width="8.7" y="281.9" x="429.9" fill="#f5dabc"/>
   <rect height="14" width="5.4" y="281.9" x="424.4" fill="#eacda5"/>
   <rect transform="matrix(-1 0 0 -1 868.5 565.45)" height="1.6" width="8.7" y="281.9" x="429.9" fill="#cfc8c0"/>
   <rect height="1.6" width="5.4" y="281.9" x="424.4" fill="#b5afa8"/>
   <rect transform="matrix(-1 0 0 -1 868.5 550.2)" height="14" width="8.7" y="268.1" x="429.9" fill="#f5dabc"/>
   <rect height="14" width="5.4" y="268.1" x="424.4" fill="#eacda5"/>
   <rect transform="matrix(-1 0 0 -1 868.5 537.84)" height="1.6" width="8.7" y="268.1" x="429.9" fill="#cfc8c0"/>
   <rect height="1.6" width="5.4" y="268.1" x="424.4" fill="#b5afa8"/>
   <rect transform="matrix(-1 0 0 -1 868.5 521.77)" height="14.8" width="8.7" y="253.5" x="429.9" fill="#f5dabc"/>
   <rect height="14.8" width="5.4" y="253.5" x="424.4" fill="#eacda5"/>
   <rect transform="matrix(-1 0 0 -1 868.5 510.23)" height="1.6" width="8.7" y="254.3" x="429.9" fill="#cfc8c0"/>
   <rect height="1.6" width="5.4" y="254.3" x="424.4" fill="#b5afa8"/>
   <path fill="#8d9ea6" d="m433.2 265.7h2.2v-4.8c0-0.6-0.5-1.1-1.1-1.1s-1.1 0.5-1.1 1.1v4.8z"/>
   <path fill="#8d9ea6" d="m426.2 265.7h1.6v-5.1c0-0.5-0.4-0.8-0.8-0.8-0.5 0-0.8 0.4-0.8 0.8v5.1z"/>
   <polygon points="429.9 253.5 438.6 253.5 431.7 232.7" fill="#e3662d"/>
   <polygon points="429.9 253.5 431.7 232.7 424.4 253.5" fill="#c95b28"/>
   <polygon points="423.6 277.7 410 277.7 415.3 283.4 428.9 283.4 428.9 282" fill="#e3662d"/>
   <polygon points="413 283.4 423.6 283.4 428.9 283.4 428.9 294.1 413 294.1" fill="#f5e2ce"/>
   <polygon points="404.7 283.4 410 279.1 415.3 283.4 415.3 294.1 404.7 294.1" fill="#eacda5"/>
   <polygon points="415.3 282 410 277.7 404.7 282 404.7 283.4 410 279.1 415.3 283.4" fill="#c95b28"/>
   <rect transform="matrix(-1 0 0 -1 849.36 576.25)" height="4.1" width="2.8" y="286.1" x="423.3" fill="#8d9ea6"/>
   <rect transform="matrix(-1 0 0 -1 838.82 576.25)" height="4.1" width="2.8" y="286.1" x="418" fill="#8d9ea6"/>
   <rect height="5.7" width="2.7" y="288.3" x="408.2" fill="#c9b08e"/>
   <polygon points="453.7 278.2 440.1 278.2 445.4 283.9 459 283.9 459 282.5" fill="#e3662d"/>
   <polygon points="443.1 283.9 453.7 283.9 459 283.9 459 294.6 443.1 294.6" fill="#f5e2ce"/>
   <polygon points="434.8 283.9 440.1 279.6 445.4 283.9 445.4 294.6 434.8 294.6" fill="#eacda5"/>
   <polygon points="445.4 282.5 440.1 278.2 434.8 282.5 434.8 283.9 440.1 279.6 445.4 283.9" fill="#c95b28"/>
   <rect transform="matrix(-1 0 0 -1 909.58 577.27)" height="4.1" width="2.8" y="286.6" x="453.4" fill="#8d9ea6"/>
   <rect transform="matrix(-1 0 0 -1 899.04 577.27)" height="4.1" width="2.8" y="286.6" x="448.1" fill="#8d9ea6"/>
   <rect height="5.7" width="2.7" y="288.8" x="438.3" fill="#c9b08e"/>
  </g>
  <path fill="#d5d624" d="m637.7 342s-261.5-144.4-453 52.8l453-52.8z"/>
  <path fill="#c3c421" d="m640 344.3v8.3l-455.3 54.6c172.1-182.3 398.8-90.2 455.3-62.9z"/>
  <path fill="#dede83" d="m417.5 353.7-25 0.5c64-17.6 58.9-50.2 73.4-61.6 1.5 0.1 2.9 0.3 4.4 0.4-11.2 8.5-8.5 47.6-52.8 60.7z"/>
  <path fill="#b7b820" d="m622.8 335.7c5.8 0 11.5 0 17.2 0.1v144.9h-559.1c2.5-80.2 244.1-145 541.9-145z"/>
  <path fill="#a8a91d" d="m622.8 341.2c5.8 0 11.5 0 17.2 0.1v139.4h-559.1c2.5-77.2 244.1-139.5 541.9-139.5z"/>
  <path fill="#d1d17b" d="m397.4 348.9c4.2-0.5 8.5-1 12.8-1.5 22.1 24.5 145.5 44.5 145.5 44.5l-81.3 2c-49.1-12.9-71.1-37.3-77-45z"/>
  <path fill="#b7b820" d="m0 480.7v-144.9c289.7 2.4 522.1 66.3 524.6 144.9h-524.6z"/>
  <path fill="#a8a91d" d="m0 480.7v-139.4c289.7 2.4 522.1 63.8 524.6 139.4h-524.6z"/>
 </g>
 <g transform="matrix(.23292 0 0 .27083 1.813 99.221)">
  <path fill="#f3e2c8" d="m635 362.7h640v-68.9h-3c-0.6 0-1-0.4-1-1v-5.7c0-0.6-0.4-1-1-1h-32.8c-0.6 0-1 0.4-1 1v7.2c0 0.6-0.4 1-1 1h-24.5c-0.6 0-1-0.4-1-1v-7.6c0-0.6-0.4-1-1-1h-35c-0.6 0-1 0.4-1 1v7c0 0.6-0.4 1-1 1h-33.7c-0.6 0-1-0.4-1-1v-5.7c0-0.6-0.4-1-1-1h-32.8c-0.6 0-1 0.4-1 1v6.1c0 0.6-0.4 1-1 1h-38.5c-0.6 0-1-0.4-1-1v-5.1c0-0.6-0.4-1-1-1h-30.3c-0.6 0-1 0.4-1 1v5.5c0 0.6-0.4 1-1 1h-41.8c-0.6 0-1-0.4-1-1v-7.4c0-0.6-0.4-1-1-1h-32c-0.6 0-1 0.4-1 1v7.4c0 0.6-0.4 1-1 1h-39.3c-0.6 0-1-0.4-1-1v-8c0-0.6-0.4-1-1-1h-36c-0.6 0-1 0.4-1 1v7c0 0.6-0.4 1-1 1h-43.8c-0.6 0-1-0.4-1-1v-7.8c0-0.6-0.4-1-1-1h-31.3c-0.6 0-1 0.4-1 1v6.1c0 0.6-0.4 1-1 1h-46.3c-0.6 0-1-0.4-1-1v-8.2c0-0.6-0.4-1-1-1h-29.8c-0.6 0-1 0.4-1 1v8.2c0 0.6-0.4 1-1 1h-38c-0.6 0-1-0.4-1-1v-7.6c0-0.6-0.4-1-1-1h-24.2c-0.6 0-1 0.5-1 1.1l0.6 8.5c0 0.6-0.4 1.1-1 1.1h-11.5v68.8z"/>
  <g opacity=".5" fill="#fff2de">
   <path d="m737.8 346.9h-68.8c-1.1 0-2-0.9-2-2v-22.4c0-1.1 0.9-2 1.9-2l70.5-1.9c1.2 0 2.1 1 2 2.1l-1.7 24.3c0 1-0.9 1.9-1.9 1.9z"/>
   <path d="m1086.3 354.5h-47.3c-1.1 0-2-0.9-2-2v-34.8c0-1.1 0.8-1.9 1.9-2l48.6-2.7c1.2-0.1 2.2 0.9 2.1 2.1l-1.3 37.5c0 1.1-0.9 1.9-2 1.9z"/>
   <path d="m844 323.9h-46.7c-1.1 0-2-0.9-2-2v-12.7c0-1.1 0.9-2 2-2h46.7c1.1 0 2 0.9 2 2v12.7c0 1.1-0.9 2-2 2z"/>
   <path d="m967.6 340.9h-46.6c-1.1 0-2-0.9-2-2v-12.7c0-1.1 0.9-2 2-2h46.7c1.1 0 2 0.9 2 2v12.7c-0.1 1.1-0.9 2-2.1 2z"/>
   <path d="m1180 321.2h-22.3c-1.1 0-2-0.9-2-2v-11.3c0-1.1 0.9-2 2-2h22.3c1.1 0 2 0.9 2 2v11.3c0 1.1-0.9 2-2 2z"/>
   <path d="m1205.3 315.2h-26c-1.1 0-2 0.9-2 2v8.7c0 1.1 0.9 2 2 2h26c1.1 0 2-0.9 2-2v-8.7c0-1.1-0.9-2-2-2z"/>
   <path d="m893.3 323.2h-21c-1.1 0-2-0.9-2-2v-9c0-1.1 0.9-2 2-2h21c1.1 0 2 0.9 2 2v9c0 1.1-0.9 2-2 2z"/>
  </g>
  <g fill="#fff2de">
   <path d="m1061.7 296.8c0 0.6 0.4 1 1 1h38.5c0.6 0 1-0.4 1-1v-2.8c0 0.6-0.4 1-1 1h-38.5c-0.6 0-1-0.4-1-1v2.8z"/>
   <path d="m1030.5 290.7h30.3c0.6 0 1 0.4 1 1v-2.8c0-0.6-0.4-1-1-1h-30.3c-0.6 0-1 0.4-1 1v2.8c0-0.6 0.4-1 1-1z"/>
   <path d="m952.7 288.8h32c0.6 0 1 0.4 1 1v-2.8c0-0.6-0.4-1-1-1h-32c-0.6 0-1 0.4-1 1v2.8c0-0.5 0.5-1 1-1z"/>
   <path d="m985.7 297.2c0 0.6 0.4 1 1 1h41.8c0.6 0 1-0.4 1-1v-2.8c0 0.6-0.4 1-1 1h-41.8c-0.6 0-1-0.4-1-1v2.8z"/>
   <path d="m1237.2 288.8h32.8c0.6 0 1 0.4 1 1v-2.8c0-0.6-0.4-1-1-1h-32.8c-0.6 0-1 0.4-1 1v2.8c0-0.5 0.5-1 1-1z"/>
   <path d="m910.5 297.2c0 0.6 0.4 1 1 1h39.3c0.6 0 1-0.4 1-1v-2.8c0 0.6-0.4 1-1 1h-39.3c-0.6 0-1-0.4-1-1v2.8z"/>
   <path d="m1209.7 297c0 0.6 0.4 1 1 1h24.5c0.6 0 1-0.4 1-1v-2.8c0 0.6-0.4 1-1 1h-24.5c-0.6 0-1-0.4-1-1v2.8z"/>
   <path d="m1137 296.4c0 0.6 0.4 1 1 1h33.8c0.6 0 1-0.4 1-1v-2.8c0 0.6-0.4 1-1 1h-33.8c-0.6 0-1-0.4-1-1v2.8z"/>
   <path d="m1103.2 289.6h32.8c0.6 0 1 0.4 1 1v-2.8c0-0.6-0.4-1-1-1h-32.8c-0.6 0-1 0.4-1 1v2.8c0-0.5 0.5-1 1-1z"/>
   <path d="m1173.7 288.4h35c0.6 0 1 0.4 1 1v-2.8c0-0.6-0.4-1-1-1h-35c-0.6 0-1 0.4-1 1v2.8c0-0.6 0.5-1 1-1z"/>
   <path d="m647.9 295.5-0.2-2.2c-0.2 0.3-0.5 0.5-0.8 0.5h-11.9v2.8h11.9c0.6-0.1 1-0.6 1-1.1z"/>
   <path d="m648.3 285.9h24.2c0.6 0 1 0.4 1 1v-2.8c0-0.6-0.4-1-1-1h-24.2c-0.6 0-1 0.5-1 1.1l0.2 2.2c0.1-0.3 0.4-0.5 0.8-0.5z"/>
   <path d="m673.5 294.5c0 0.6 0.4 1 1 1h38c0.6 0 1-0.4 1-1v-2.8c0 0.6-0.4 1-1 1h-38c-0.6 0-1-0.4-1-1v2.8z"/>
   <path d="m873.5 288.2h36c0.6 0 1 0.4 1 1v-2.8c0-0.6-0.4-1-1-1h-36c-0.6 0-1 0.4-1 1v2.8c0-0.6 0.4-1 1-1z"/>
   <path d="m1272 293.8c-0.6 0-1-0.4-1-1v2.8c0 0.6 0.4 1 1 1h3v-2.8h-3z"/>
   <path d="m794.5 287.4h31.3c0.6 0 1 0.4 1 1v-2.8c0-0.6-0.4-1-1-1h-31.3c-0.6 0-1 0.4-1 1v2.8c0-0.6 0.4-1 1-1z"/>
   <path d="m826.7 296.1c0 0.6 0.4 1 1 1h43.8c0.6 0 1-0.4 1-1v-2.8c0 0.6-0.4 1-1 1h-43.8c-0.6 0-1-0.4-1-1v2.8z"/>
   <path d="m745.2 294.5c0 0.6 0.4 1 1 1h46.3c0.6 0 1-0.4 1-1v-2.8c0 0.6-0.4 1-1 1h-46.3c-0.6 0-1-0.4-1-1v2.8z"/>
   <path d="m714.5 285.3h29.8c0.6 0 1 0.4 1 1v-2.8c0-0.6-0.4-1-1-1h-29.8c-0.6 0-1 0.4-1 1v2.8c0-0.6 0.4-1 1-1z"/>
  </g>
  <rect height="87.5" width="640" y="330.5" x="635" fill="#755d3b"/>
  <polygon opacity=".5" points="870.3 369.9 895.3 364.9 895 350.2 845.3 351.5" fill="#695335"/>
  <rect opacity=".5" height="31.5" width="640" y="330.5" x="635" fill="#543e1e"/>
  <rect height="24.5" width="640" y="330.5" x="635" fill="#c1c206"/>
  <path opacity=".5" fill="#afb006" d="m1150 330.9s26 14.3 27.3 14.7c1.3 0.3 47-0.3 47-0.3l12-14.3h-86.3z"/>
  <g opacity=".5" fill="#afb006">
   <polygon points="1001.5 355 1003.6 346.2 969.3 338.9 953.6 349.9 962.1 355"/>
   <path d="m704 346.5c-2.2 0.2-7.2 4.8-11 8.5h57.5l-6.6-8.1c0.1 0-36.3-0.7-39.9-0.4z"/>
  </g>
  <linearGradient id="SVGID_1_-6" y2="199.18" gradientUnits="userSpaceOnUse" y1="199.18" x2="1170.1" x1="1021.3">
   <stop stop-color="#957549" offset="0"/>
   <stop stop-color="#99794E" offset="1"/>
  </linearGradient>
  <path fill="url(#SVGID_1_-6)" d="m1030 329.2s69.3-42.7 49.3-78c0 0-58-64.7-58-66.7s22-94 22-94l-12.7-19.3 7.3-2 18.7 22.7 1.3 89.3s115.3 86 112 148h-139.9z"/>
  <path opacity=".4" fill="#806541" d="m1106.5 290.5-6-1-1 30-14.5-2.5c6.5-8 10-42 10-42l-6-1c-1.5 14.5-19 31-19 31l-7.5-1.9c-14.9 15.2-32.5 26.1-32.5 26.1h85.3l-8.8-38.7z"/>
  <path fill="#b6ba25" d="m874.6 329.5c11.4-12.4-6.5-20.5-10.2-16.3 1-17.7-19.6-13.5-20.9-6.5-5.6-1.7-18 0.2-17.4 13.6-5.3-4.9-17.5-2.9-13.3 9.2h61.8z"/>
  <path fill="#a0a321" d="m803.5 329.5c-7.8-8.4 4.4-14 6.9-11.1-0.7-12 13.4-9.2 14.2-4.4 3.8-1.2 12.3 0.2 11.9 9.3 3.6-3.3 12-2 9 6.3h-42z"/>
  <rect height="3.9" width="640" y="329" x="635" fill="#cde000"/>
  <g fill="#cde000">
   <path d="m651.5 330.5c-6.8-9.4-1.1-7.4 0.3-4.4 9-5 7.8 1.4 4 3.9l-4.3 0.5z"/>
   <path d="m774.9 330.5c-6.8-9.4-1.1-7.4 0.3-4.4 9-5 7.8 1.4 4 3.9l-4.3 0.5z"/>
   <path d="m1016.1 330.5c-6.8-9.4-1.1-7.4 0.3-4.4 9-5 7.8 1.4 4 3.9l-4.3 0.5z"/>
   <path d="m908.7 330.3c-5.8-6.8 5.5-8.5 3.3-1l-3.3 1z"/>
   <path d="m1205.2 330.3c-5.8-6.8 5.5-8.5 3.3-1l-3.3 1z"/>
   <path d="m1146.6 330.8c-6.3-9.9 6-12.5 3.6-1.5l-3.6 1.5z"/>
  </g>
  <g fill="#695335">
   <path opacity=".5" d="m707.8 393 23.2 21.9c0.4 0.4 1 0.4 1.3 0l32.7-28.9c0.4-0.3 0.9-0.3 1.3-0.1l5 3.7c0.4 0.3 0.9 0.3 1.3-0.1l12.1-11.2c0.5-0.4 0.4-1.2-0.1-1.6l-17.3-10.9c-0.4-0.2-0.8-0.2-1.2 0.1l-9.2 7.7c-0.3 0.3-0.9 0.3-1.2 0l-13.7-9.8c-0.4-0.3-0.9-0.2-1.2 0l-32.9 27.5c-0.5 0.5-0.5 1.2-0.1 1.7z"/>
   <path opacity=".5" d="m1225.5 418-0.2-10.1s-35.7-10.3-38.7-10.7c-2-0.2-15.6 12.3-24.5 20.8h63.4z"/>
   <path opacity=".5" d="m965.5 386.9-7.4 15.2c-0.5 1.1 0 2.4 1.2 2.8l19.4 6.1c1 0.3 2-0.2 2.4-1.1l6.1-12.9c0.5-1 0-2.2-1-2.7l-18.1-8.3c-1-0.5-2.2 0-2.6 0.9z"/>
  </g>
  <path fill="#fff" d="m1115.3 163.9h79.3s-0.7-11.3-14-11.3c9.3-19.3-19.3-24.7-25.3-14.7-4-9.3-22.7 3.3-16.7 10.7-18-3.4-25.3 11.3-23.3 15.3z"/>
  <path opacity=".2" fill="#695335" d="m958.5 302.7-1.8 7.5 10.2 2.4 2.1-8.7s-9.3-2.7-10.5-1.2z"/>
  <g fill="#695335">
   <path opacity=".2" d="m686.6 307.4-0.4 6.3 8.5 0.5 0.5-7.3s-7.8-0.9-8.6 0.5z"/>
   <path opacity=".2" d="m696.2 303.4-0.3 4.9 6.7 0.4 0.4-5.7c-0.1 0.1-6.3-0.6-6.8 0.4z"/>
   <path opacity=".2" d="m699.4 310.8-0.3 4.9 6.7 0.4 0.4-5.7c-0.1 0-6.2-0.7-6.8 0.4z"/>
  </g>
  <path fill="#c1c228" d="m1140.9 60.8c15.7-19-11.6-22.8-17.2-10.8 0.7-20.2-21.9-17.4-22.3-3.7-5.1-7.1-12.6-6.5-17.3-3.9 1-8.8-3.2-11.9-8-11.6-5.3-2-13.4-0.1-16.1 5.7 0.6-19.1-20.7-16.5-21.1-3.5-4.8-6.7-12-6.2-16.4-3.6 2.1-18.6-20.1-10.4-19.7 1.5-8.1-17.3-25.9-5.3-20.4 6.5-12.4-6.4-21.4 8.7-16.5 11.5-20.5 7.9-8.7 35.9 6.4 22.5 0.9 22.6 22.6 20.5 26.5 9.4 5.5 7.1 11.2 7.2 15.5 4.5 3 5.4 9.5 7.9 16.7 1.5 0.9 23.9 23.9 21.6 28.1 9.9 8.2 10.5 16.6 6.6 21.3 0 5.1 2.6 11.6 2.2 15.6-1.6 4.1 21.1 25.5 9 27.6 0.5 17.6 12.9 24.1-5 17-17 18.1 2.5 20.6-15.2 0.3-17.8z"/>
  <path fill="#b9ba26" d="m1140.7 78.5c18 2.6 20.5-15.1 0.2-17.7 15.7-19-11.6-22.8-17.2-10.8 0.1-2.2-0.2-4.2-0.6-5.9-46.7 7.7-102.3 21.3-147.9 38.3 6.2 10.3 20.5 7.2 23.7-1.6 5.5 7.1 11.2 7.2 15.5 4.5 3 5.4 9.5 7.9 16.7 1.5 0.9 23.9 23.9 21.6 28.1 9.9 8.2 10.5 16.6 6.6 21.3 0 5.1 2.6 11.6 2.2 15.6-1.6 4.1 21.1 25.5 9 27.6 0.5 17.6 12.9 24.1-5 17-17.1z"/>
  <linearGradient id="SVGID_2_" y2="201.52" gradientUnits="userSpaceOnUse" y1="201.52" x2="1193.5" x1="1107.5">
   <stop stop-color="#957549" offset="0"/>
   <stop stop-color="#99794E" offset="1"/>
  </linearGradient>
  <path fill="url(#SVGID_2_)" d="m1107.5 232.5s48.5-16 54.5-49l-13-19 5-0.5 10.5 13 24-20 5 2-24.5 22.5s-12.5 50.5-45.5 64.5l-16-13.5z"/>
  <path fill="#c1c228" d="m1112.8 165.1c-14.3 8.5-5.9 22.5 10 12.6-0.2 22.5 21.3 9.5 18.4-2.2 11.1 14.7 25.5-0.2 17.9-10.2 13 3.5 18.5-12.5 13.2-14.2 17.8-11.6 1-35.6-10.6-19.9-5.3-21.1-25.4-14.8-26.9-3.5-15-12.6-23.2 8.3-19.8 15.5-19.8 1.1-14.1 17.4-2.2 21.9z"/>
  <path fill="#dadb2d" d="m1122.4 158.2c-17-6.1-4.3-9.6-2-5.4 4.3-8.3 5.2-0.8 2 5.4z"/>
  <path fill="#b9ba26" d="m1172.4 151.2c-1.7 2.8-11.7 5.7-12.5 1.4-15.9 22.7-32.3 9.9-32.3 9.9-4.7 14-16.7 9.7-14.8 2.6-14.3 8.5-5.9 22.5 10 12.6-0.2 22.5 21.3 9.5 18.4-2.2 11.1 14.7 25.5-0.2 17.9-10.2 13 3.6 18.5-12.5 13.3-14.1z"/>
  <path fill="#c1c228" d="m1233.5 149.8c16.2 3.7 12.5 19.6-5.7 15.1 7 21.3-17.4 15.6-18.2 3.5-6.1 17.4-24.4 7.6-20.2-4.3-11.3 7.3-21.4-6.3-16.9-9.4-20.4-5.6-11.8-33.6 4-22.2-1.3-21.7 19.7-21.8 24.5-11.6 10.4-16.5 24.7 0.8 23.6 8.7 19.4-5 18.9 12.3 8.9 20.2z"/>
  <path fill="#dadb2d" d="m1204 145.2c11.8-13.7-1-10.5-0.9-5.7-7.9-5-5 2 0.9 5.7z"/>
  <path fill="#b9ba26" d="m1172.5 154.7c2.5 2.1 12.8 1.8 12.3-2.4 22 16.8 33.8-0.5 33.8-0.5 8.7 11.9 18.8 4.1 14.9-2 16.2 3.7 12.5 19.6-5.7 15.1 7 21.3-17.4 15.6-18.2 3.5-6.1 17.4-24.4 7.6-20.2-4.3-11.2 7.4-21.4-6.3-16.9-9.4z"/>
  <g fill="#806541">
   <path opacity=".4" d="m1104 220.7c-11.7-11.3-22.9-20.9-31.2-27.8l-3.8 7.1s25 25 26.5 25c0.7 0 4.5-2.1 8.5-4.3z"/>
   <path opacity=".4" d="m1040 174 6-21-2.5-0.5-3 8.5-5.5-3 4-21-5.4-5.4c-4 17.1-8.3 35.2-10.6 45.2l17-2.8z"/>
   <polygon opacity=".4" points="1126 281.5 1118.5 264 1113 266.5 1125 303.5 1144.5 296.5 1139 281.5"/>
  </g>
  <path fill="#b6ba25" d="m1182.1 329.5c11.4-12.4-6.5-20.5-10.2-16.3 1-17.7-19.6-13.5-20.9-6.5-5.6-1.7-18 0.2-17.4 13.6-5.3-4.9-17.5-2.9-13.3 9.2h61.8z"/>
  <path opacity=".2" d="m635 418h640v-19.2c-143.7 0-421.5-8.7-640 0v19.2z"/>
  <path fill="#f3e2c8" d="m636 362.7h-640v-68.9h3c0.6 0 1-0.4 1-1v-5.7c0-0.6 0.4-1 1-1h32.8c0.6 0 1 0.4 1 1v7.2c0 0.6 0.4 1 1 1h24.5c0.6 0 1-0.4 1-1v-7.6c0-0.6 0.4-1 1-1h35c0.6 0 1 0.4 1 1v7c0 0.6 0.4 1 1 1h33.7c0.6 0 1-0.4 1-1v-5.7c0-0.6 0.4-1 1-1h32.8c0.6 0 1 0.4 1 1v6.1c0 0.6 0.4 1 1 1h38.5c0.6 0 1-0.4 1-1v-5.1c0-0.6 0.4-1 1-1h30.3c0.6 0 1 0.4 1 1v5.5c0 0.6 0.4 1 1 1h41.8c0.6 0 1-0.4 1-1v-7.4c0-0.6 0.4-1 1-1h32c0.6 0 1 0.4 1 1v7.4c0 0.6 0.4 1 1 1h39.3c0.6 0 1-0.4 1-1v-8c0-0.6 0.4-1 1-1h36c0.6 0 1 0.4 1 1v7c0 0.6 0.4 1 1 1h43.8c0.6 0 1-0.4 1-1v-7.8c0-0.6 0.4-1 1-1h31.3c0.6 0 1 0.4 1 1v6.1c0 0.6 0.4 1 1 1h46.3c0.6 0 1-0.4 1-1v-8.2c0-0.6 0.4-1 1-1h29.8c0.6 0 1 0.4 1 1v8.2c0 0.6 0.4 1 1 1h38c0.6 0 1-0.4 1-1v-7.6c0-0.6 0.4-1 1-1h24.2c0.6 0 1 0.5 1 1.1l-0.6 8.5c0 0.6 0.4 1.1 1 1.1h11.5v68.8z"/>
  <g opacity=".5" fill="#fff2de">
   <path d="m533.2 346.9h68.8c1.1 0 2-0.9 2-2v-22.4c0-1.1-0.9-2-1.9-2l-70.5-1.9c-1.2 0-2.1 1-2 2.1l1.7 24.3c0 1 0.9 1.9 1.9 1.9z"/>
   <path d="m184.7 354.5h47.3c1.1 0 2-0.9 2-2v-34.8c0-1.1-0.8-1.9-1.9-2l-48.6-2.7c-1.2-0.1-2.2 0.9-2.1 2.1l1.3 37.5c0 1.1 0.9 1.9 2 1.9z"/>
   <path d="m427 323.9h46.7c1.1 0 2-0.9 2-2v-12.7c0-1.1-0.9-2-2-2h-46.7c-1.1 0-2 0.9-2 2v12.7c0 1.1 0.9 2 2 2z"/>
   <path d="m303.4 340.9h46.6c1.1 0 2-0.9 2-2v-12.7c0-1.1-0.9-2-2-2h-46.7c-1.1 0-2 0.9-2 2v12.7c0.1 1.1 0.9 2 2.1 2z"/>
   <path d="m91 321.2h22.3c1.1 0 2-0.9 2-2v-11.3c0-1.1-0.9-2-2-2h-22.3c-1.1 0-2 0.9-2 2v11.3c0 1.1 0.9 2 2 2z"/>
   <path d="m65.7 315.2h26c1.1 0 2 0.9 2 2v8.7c0 1.1-0.9 2-2 2h-26c-1.1 0-2-0.9-2-2v-8.7c0-1.1 0.9-2 2-2z"/>
   <path d="m377.7 323.2h21c1.1 0 2-0.9 2-2v-9c0-1.1-0.9-2-2-2h-21c-1.1 0-2 0.9-2 2v9c0 1.1 0.9 2 2 2z"/>
  </g>
  <g fill="#fff2de">
   <path d="m209.3 296.8c0 0.6-0.4 1-1 1h-38.5c-0.6 0-1-0.4-1-1v-2.8c0 0.6 0.4 1 1 1h38.5c0.6 0 1-0.4 1-1v2.8z"/>
   <path d="m240.5 290.7h-30.3c-0.6 0-1 0.4-1 1v-2.8c0-0.6 0.4-1 1-1h30.3c0.6 0 1 0.4 1 1v2.8c0-0.6-0.4-1-1-1z"/>
   <path d="m318.3 288.8h-32c-0.6 0-1 0.4-1 1v-2.8c0-0.6 0.4-1 1-1h32c0.6 0 1 0.4 1 1v2.8c0-0.5-0.5-1-1-1z"/>
   <path d="m285.3 297.2c0 0.6-0.4 1-1 1h-41.8c-0.6 0-1-0.4-1-1v-2.8c0 0.6 0.4 1 1 1h41.8c0.6 0 1-0.4 1-1v2.8z"/>
   <path d="m33.8 288.8h-32.8c-0.6 0-1 0.4-1 1v-2.8c0-0.6 0.4-1 1-1h32.8c0.6 0 1 0.4 1 1v2.8c0-0.5-0.5-1-1-1z"/>
   <path d="m360.5 297.2c0 0.6-0.4 1-1 1h-39.3c-0.6 0-1-0.4-1-1v-2.8c0 0.6 0.4 1 1 1h39.3c0.6 0 1-0.4 1-1v2.8z"/>
   <path d="m61.3 297c0 0.6-0.4 1-1 1h-24.5c-0.6 0-1-0.4-1-1v-2.8c0 0.6 0.4 1 1 1h24.5c0.6 0 1-0.4 1-1v2.8z"/>
   <path d="m134 296.4c0 0.6-0.4 1-1 1h-33.7c-0.6 0-1-0.4-1-1v-2.8c0 0.6 0.4 1 1 1h33.7c0.6 0 1-0.4 1-1v2.8z"/>
   <path d="m167.8 289.6h-32.8c-0.6 0-1 0.4-1 1v-2.8c0-0.6 0.4-1 1-1h32.8c0.6 0 1 0.4 1 1v2.8c0-0.5-0.5-1-1-1z"/>
   <path d="m97.3 288.4h-35c-0.6 0-1 0.4-1 1v-2.8c0-0.6 0.4-1 1-1h35c0.6 0 1 0.4 1 1v2.8c0-0.6-0.5-1-1-1z"/>
   <path d="m623.1 295.5 0.2-2.2c0.2 0.3 0.5 0.5 0.8 0.5h11.9v2.8h-11.9c-0.6-0.1-1-0.6-1-1.1z"/>
   <path d="m622.7 285.9h-24.2c-0.6 0-1 0.4-1 1v-2.8c0-0.6 0.4-1 1-1h24.2c0.6 0 1 0.5 1 1.1l-0.2 2.2c-0.1-0.3-0.4-0.5-0.8-0.5z"/>
   <path d="m597.5 294.5c0 0.6-0.4 1-1 1h-38c-0.6 0-1-0.4-1-1v-2.8c0 0.6 0.4 1 1 1h38c0.6 0 1-0.4 1-1v2.8z"/>
   <path d="m397.5 288.2h-36c-0.6 0-1 0.4-1 1v-2.8c0-0.6 0.4-1 1-1h36c0.6 0 1 0.4 1 1v2.8c0-0.6-0.4-1-1-1z"/>
   <path d="m-1 293.8c0.6 0 1-0.4 1-1v2.8c0 0.6-0.4 1-1 1h-3v-2.8h3z"/>
   <path d="m476.5 287.4h-31.3c-0.6 0-1 0.4-1 1v-2.8c0-0.6 0.4-1 1-1h31.3c0.6 0 1 0.4 1 1v2.8c0-0.6-0.4-1-1-1z"/>
   <path d="m444.3 296.1c0 0.6-0.4 1-1 1h-43.8c-0.6 0-1-0.4-1-1v-2.8c0 0.6 0.4 1 1 1h43.8c0.6 0 1-0.4 1-1v2.8z"/>
   <path d="m525.8 294.5c0 0.6-0.4 1-1 1h-46.3c-0.6 0-1-0.4-1-1v-2.8c0 0.6 0.4 1 1 1h46.3c0.6 0 1-0.4 1-1v2.8z"/>
   <path d="m556.5 285.3h-29.8c-0.6 0-1 0.4-1 1v-2.8c0-0.6 0.4-1 1-1h29.8c0.6 0 1 0.4 1 1v2.8c0-0.6-0.4-1-1-1z"/>
  </g>
  <rect transform="matrix(-1,0,0,-1,632,748.5)" height="87.5" width="640" y="330.5" x="-4" fill="#755d3b"/>
  <polygon opacity=".5" points="400.7 369.9 375.7 364.9 376 350.2 425.7 351.5" fill="#695335"/>
  <rect opacity=".5" transform="matrix(-1,0,0,-1,632,692.5)" height="31.5" width="640" y="330.5" x="-4" fill="#543e1e"/>
  <rect transform="matrix(-1,0,0,-1,632,685.5)" height="24.5" width="640" y="330.5" x="-4" fill="#c1c206"/>
  <path opacity=".5" fill="#afb006" d="m121 330.9s-26 14.3-27.3 14.7c-1.3 0.3-47-0.3-47-0.3l-12-14.3h86.3z"/>
  <g opacity=".5" fill="#afb006">
   <polygon points="269.5 355 267.4 346.2 301.7 338.9 317.4 349.9 308.9 355"/>
   <path d="m567 346.5c2.2 0.2 7.2 4.8 11 8.5h-57.5l6.6-8.1c-0.1 0 36.3-0.7 39.9-0.4z"/>
  </g>
  <linearGradient id="SVGID_3_" y2="199.18" gradientUnits="userSpaceOnUse" y1="199.18" gradientTransform="matrix(-1,0,0,1,632,0)" x2="531.05" x1="382.32">
   <stop stop-color="#957549" offset="0"/>
   <stop stop-color="#99794E" offset="1"/>
  </linearGradient>
  <path fill="url(#SVGID_3_)" d="m241 329.2s-69.3-42.7-49.3-78c0 0 58-64.7 58-66.7s-22-94-22-94l12.7-19.3-7.3-2-18.7 22.7-1.3 89.3s-115.3 86-112 148h139.9z"/>
  <path opacity=".4" fill="#806541" d="m164.5 290.5 6-1 1 30 14.5-2.5c-6.5-8-10-42-10-42l6-1c1.5 14.5 19 31 19 31l7.5-1.9c14.9 15.2 32.5 26.1 32.5 26.1h-85.3l8.8-38.7z"/>
  <path fill="#b6ba25" d="m396.4 329.5c-11.4-12.4 6.5-20.5 10.2-16.3-1-17.7 19.6-13.5 20.9-6.5 5.6-1.7 18 0.2 17.4 13.6 5.3-4.9 17.5-2.9 13.3 9.2h-61.8z"/>
  <path fill="#a0a321" d="m467.5 329.5c7.8-8.4-4.4-14-6.9-11.1 0.7-12-13.4-9.2-14.2-4.4-3.8-1.2-12.3 0.2-11.9 9.3-3.6-3.3-12-2-9 6.3h42z"/>
  <rect transform="matrix(-1 0 0 -1 632 662)" height="3.9" width="640" y="329" x="-4" fill="#cde000"/>
  <g fill="#cde000">
   <path d="m619.5 330.5c6.8-9.4 1.1-7.4-0.3-4.4-9-5-7.8 1.4-4 3.9l4.3 0.5z"/>
   <path d="m496.1 330.5c6.8-9.4 1.1-7.4-0.3-4.4-9-5-7.8 1.4-4 3.9l4.3 0.5z"/>
   <path d="m254.9 330.5c6.8-9.4 1.1-7.4-0.3-4.4-9-5-7.8 1.4-4 3.9l4.3 0.5z"/>
   <path d="m362.3 330.3c5.8-6.8-5.5-8.5-3.3-1l3.3 1z"/>
   <path d="m65.8 330.3c5.8-6.8-5.5-8.5-3.3-1l3.3 1z"/>
   <path d="m124.4 330.8c6.3-9.9-6-12.5-3.6-1.5l3.6 1.5z"/>
  </g>
  <g fill="#695335">
   <path opacity=".5" d="m563.2 393-23.2 21.9c-0.4 0.4-1 0.4-1.3 0l-32.7-28.8c-0.4-0.3-0.9-0.3-1.3-0.1l-5 3.7c-0.4 0.3-0.9 0.3-1.3-0.1l-12.1-11.2c-0.5-0.4-0.4-1.2 0.1-1.6l17.3-10.9c0.4-0.2 0.8-0.2 1.2 0.1l9.2 7.7c0.3 0.3 0.9 0.3 1.2 0l13.7-9.8c0.4-0.3 0.9-0.2 1.2 0l32.9 27.5c0.5 0.4 0.5 1.1 0.1 1.6z"/>
   <path opacity=".5" d="m45.5 418 0.2-10.1s35.7-10.3 38.7-10.7c2-0.2 15.6 12.3 24.5 20.8h-63.4z"/>
   <path opacity=".5" d="m305.5 386.9 7.4 15.2c0.5 1.1 0 2.4-1.2 2.8l-19.4 6.1c-1 0.3-2-0.2-2.4-1.1l-6.1-12.9c-0.5-1 0-2.2 1-2.7l18.1-8.3c1-0.5 2.2 0 2.6 0.9z"/>
  </g>
  <path fill="#fff" d="m155.7 163.9h-79.3s0.7-11.3 14-11.3c-9.3-19.3 19.3-24.7 25.3-14.7 4-9.3 22.7 3.3 16.7 10.7 18-3.4 25.3 11.3 23.3 15.3z"/>
  <path opacity=".2" fill="#695335" d="m312.5 302.7 1.8 7.5-10.2 2.4-2.1-8.7s9.3-2.7 10.5-1.2z"/>
  <g fill="#695335">
   <path opacity=".2" d="m584.4 307.4 0.4 6.3-8.5 0.5-0.5-7.3s7.8-0.9 8.6 0.5z"/>
   <path opacity=".2" d="m574.8 303.4 0.3 4.9-6.7 0.4-0.4-5.7c0.1 0.1 6.3-0.6 6.8 0.4z"/>
   <path opacity=".2" d="m571.6 310.8 0.3 4.9-6.7 0.4-0.4-5.7c0.1 0 6.2-0.7 6.8 0.4z"/>
  </g>
  <path fill="#c1c228" d="m130.1 60.8c-15.7-19 11.6-22.8 17.2-10.8-0.7-20.2 21.9-17.4 22.3-3.7 5.1-7.1 12.6-6.5 17.3-3.9-1-8.8 3.2-11.9 8-11.6 5.3-2 13.4-0.1 16.1 5.7-0.6-19.1 20.7-16.5 21.1-3.5 4.8-6.7 12-6.2 16.4-3.6-2.1-18.6 20.1-10.4 19.7 1.5 8.1-17.3 25.9-5.3 20.4 6.5 12.4-6.4 21.4 8.7 16.5 11.5 20.5 7.9 8.7 35.9-6.4 22.5-0.9 22.6-22.6 20.5-26.5 9.4-5.5 7.1-11.2 7.2-15.5 4.5-3 5.4-9.5 7.9-16.7 1.5-0.9 23.9-23.9 21.6-28.1 9.9-8.2 10.5-16.6 6.6-21.3 0-5.1 2.6-11.6 2.2-15.6-1.6-4.1 21.1-25.5 9-27.6 0.5-17.6 12.9-24.1-5-17-17-18.1 2.5-20.6-15.2-0.3-17.8z"/>
  <path fill="#b9ba26" d="m130.3 78.5c-18 2.6-20.5-15.1-0.2-17.7-15.7-19 11.6-22.8 17.2-10.8-0.1-2.2 0.2-4.2 0.6-5.9 46.7 7.7 102.3 21.3 147.9 38.3-6.2 10.3-20.5 7.2-23.7-1.6-5.5 7.1-11.2 7.2-15.5 4.5-3 5.4-9.5 7.9-16.7 1.5-0.9 23.9-23.9 21.6-28.1 9.9-8.2 10.5-16.6 6.6-21.3 0-5.1 2.6-11.6 2.2-15.6-1.6-4.1 21.1-25.5 9-27.6 0.5-17.6 12.9-24.1-5-17-17.1z"/>
  <linearGradient id="SVGID_4_" y2="201.52" gradientUnits="userSpaceOnUse" y1="201.52" gradientTransform="matrix(-1,0,0,1,632,0)" x2="554.48" x1="468.48">
   <stop stop-color="#957549" offset="0"/>
   <stop stop-color="#99794E" offset="1"/>
  </linearGradient>
  <path fill="url(#SVGID_4_)" d="m163.5 232.5s-48.5-16-54.5-49l13-19-5-0.5-10.5 13-24-20-5 2 24.5 22.5s12.5 50.5 45.5 64.5l16-13.5z"/>
  <path fill="#c1c228" d="m158.2 165.1c14.3 8.5 5.9 22.5-10 12.6 0.2 22.5-21.3 9.5-18.4-2.2-11.1 14.7-25.5-0.2-17.9-10.2-13 3.5-18.5-12.5-13.2-14.2-17.8-11.6-1-35.6 10.6-19.9 5.3-21.1 25.4-14.8 26.9-3.5 15-12.6 23.2 8.3 19.8 15.5 19.8 1.1 14.1 17.4 2.2 21.9z"/>
  <path fill="#dadb2d" d="m148.6 158.2c17-6.1 4.3-9.6 2-5.4-4.3-8.3-5.2-0.8-2 5.4z"/>
  <path fill="#b9ba26" d="m98.6 151.2c1.7 2.8 11.7 5.7 12.5 1.4 15.9 22.7 32.3 9.9 32.3 9.9 4.7 14 16.7 9.7 14.8 2.6 14.3 8.5 5.9 22.5-10 12.6 0.2 22.5-21.3 9.5-18.4-2.2-11.1 14.7-25.5-0.2-17.9-10.2-13 3.6-18.5-12.5-13.3-14.1z"/>
  <path fill="#c1c228" d="m37.5 149.8c-16.2 3.7-12.5 19.6 5.7 15.1-7 21.3 17.4 15.6 18.2 3.5 6.1 17.4 24.4 7.6 20.2-4.3 11.3 7.3 21.4-6.3 16.9-9.4 20.4-5.6 11.8-33.6-4-22.2 1.3-21.7-19.7-21.8-24.5-11.6-10.4-16.5-24.7 0.8-23.6 8.7-19.4-5-18.9 12.3-8.9 20.2z"/>
  <path fill="#dadb2d" d="m67 145.2c-11.8-13.7 1-10.5 0.9-5.7 7.9-5 5 2-0.9 5.7z"/>
  <path fill="#b9ba26" d="m98.5 154.7c-2.5 2.1-12.8 1.8-12.3-2.4-22 16.8-33.8-0.5-33.8-0.5-8.7 11.9-18.8 4.1-14.9-2-16.2 3.7-12.5 19.6 5.7 15.1-7 21.3 17.4 15.6 18.2 3.5 6.1 17.4 24.4 7.6 20.2-4.3 11.2 7.4 21.4-6.3 16.9-9.4z"/>
  <g fill="#806541">
   <path opacity=".4" d="m167 220.7c11.7-11.3 22.9-20.9 31.2-27.8l3.8 7.1s-25 25-26.5 25c-0.7 0-4.5-2.1-8.5-4.3z"/>
   <path opacity=".4" d="m231 174-6-21 2.5-0.5 3 8.5 5.5-3-4-21 5.4-5.4c4 17.1 8.3 35.2 10.6 45.2l-17-2.8z"/>
   <polygon opacity=".4" points="145 281.5 152.5 264 158 266.5 146 303.5 126.5 296.5 132 281.5"/>
  </g>
  <path fill="#b6ba25" d="m88.9 329.5c-11.4-12.4 6.5-20.5 10.2-16.3-1-17.7 19.6-13.5 20.9-6.5 5.6-1.7 18 0.2 17.4 13.6 5.3-4.9 17.5-2.9 13.3 9.2h-61.8z"/>
  <path opacity=".2" d="m636 418h-640v-19.2c143.7 0 421.5-8.7 640 0v19.2z"/>
 </g>
</svg>
