<?xml version="1.0" encoding="utf-8"?>
<!-- Generator: Adobe Illustrator 21.0.1, SVG Export Plug-In . SVG Version: 6.00 Build 0)  -->
<svg version="1.1" id="Режим_изоляции"
	 xmlns="http://www.w3.org/2000/svg" xmlns:xlink="http://www.w3.org/1999/xlink" x="0px" y="0px" viewBox="0 0 304 323.5"
	 enable-background="new 0 0 304 323.5" xml:space="preserve">
<g>
	<g>
		<path fill="#544D47" d="M71.7,200.2l35.6,4.8l12,1.6l12.2-56.1l7.1-32.4l2-9c-8.6,0.1-23.7,1-35.6,4.8c-7.6,2.4-14,6.1-16.6,11.5
			L71.7,200.2z"/>
		<path fill="#5FB872" d="M123.1,222.5c-5.9-2.2-7.7-2.7-7.7-2.7c-12.8,2.4-1.1,17.1-1.1,17.1c-4.9,2.2-9.5,3.3-13.6,3.6
			c-2.3,0.2-4.5,0.1-6.6-0.1h0c-4-0.4-7.5-1.6-10.5-3c-2.5-1.2-4.7-2.7-6.3-4c-2.3-1.9-3.7-3.7-4.2-4.5c-3.9-7.3,0.5-28.4,0.5-28.4
			l45.7,6.1c0,0,3.6,6.6,4.5,9.1C124.8,217.9,125.5,223.4,123.1,222.5z"/>
		<path opacity="0.3" fill="#5FB872" d="M100.7,240.5c-2.3,0.2-4.5,0.1-6.6-0.1h0c-5-6.1-2.4-16.7-2.4-16.7l2.3,0.7
			C92.9,232.6,97.3,237.8,100.7,240.5z"/>
		<path opacity="0.3" fill="#5FB872" d="M83.6,237.4c-2.5-1.2-4.7-2.7-6.3-4c-0.6-5.7,1.5-11.3,1.5-11.3l2.1,1
			C79.4,229.3,81.3,234.1,83.6,237.4z"/>
		<path fill="#5FB872" d="M227.8,284.7c0,0,7.2,14.2,4.9,16.1c-2.3,1.8-26.3,16.5-34.2,16.7c-7.9,0.1-6.6-3.7-6.6-3.7
			s-6.5,5.9-12.3,2.2c0,0-2.9-1.2-2.2-4.3c0,0-2.7,5-9.1,3.2c0,0-3.2-1.2-2.6-4.8c0,0-5,1.8-7.1-2.8c-2.2-4.7-0.2-10.2,11.3-10.8
			c11.5-0.5,18.5-14.2,18.5-14.2L227.8,284.7z"/>
		<path fill="#5FB872" d="M159.6,275.8c0,0,8.1,12.8,6.1,14.7c-2,1.9-23.4,17.9-30.8,18.8c-7.4,0.8-6.5-2.9-6.5-2.9
			s-5.6,6.1-11.4,3.2c0,0-2.8-0.8-2.5-3.8c0,0-2.1,5-8.3,3.8c0,0-3.1-0.9-2.9-4.3c0,0-5.8,2.5-6.4-2.3c-0.7-4.8-1.7-9.4,9.1-10.9
			c10.8-1.5,16.2-15,16.2-15L159.6,275.8z"/>
		<path fill="#5D4837" d="M157.2,308.7l5.6-1.5c-5.4,1.9,2.2-0.5,3.2-1.6c1-1.1,1.7-4.7-2.6-5.5
			C157.4,298.8,157.2,308.7,157.2,308.7z"/>
		<path fill="#5D4837" d="M130.5,310.7l7.2-3.9c0,0-0.5-4.1-4.8-3.8C128.5,303.3,130.5,310.7,130.5,310.7z"/>
		<path fill="#5D4837" d="M117.2,310.3l6.8-4.5c0,0-0.8-4-5.1-3.4C114.7,303.1,117.2,310.3,117.2,310.3z"/>
		<path fill="#5D4837" d="M106.3,309.8l6.2-5.3c0,0-1.3-3.9-5.4-2.7C102.8,303,106.3,309.8,106.3,309.8z"/>
		<path fill="#5D4837" d="M96.5,303.4c0,0,7.6-2.6,8.5-3.8c0.9-1.2,1.3-4.8-3-5.3C95.9,293.6,96.5,303.4,96.5,303.4z"/>
		<path fill="#3B3632" d="M179,290.2c1.8,4,12.6,5.9,16.5,6.2c35.6,2.5,44.2-3.3,44.2-3.3v-68.6H179
			C179,224.4,176.5,284.7,179,290.2z"/>
		<path fill="#3B3632" d="M114.8,286c0,0,1.7,2.2,13.8,4.5c9.6,1.8,33.8,5.5,40.6-2c5.8-6.3,5.7-65,5.7-65l-52.7-5.8L114.8,286z"/>
		<polygon fill="#544D47" points="107.3,118 107.3,273.5 120.8,273.5 134.9,254 151.1,273.5 199.5,273.5 212.8,262.5 223.3,273.5 
			245.6,273.5 245.6,118 		"/>
		<path fill="#3B3632" d="M110.5,112.1c0.6,2.6,3.1,26.8,21.1,38.4c8.7,5.6,19.2,8.4,30.4,8.4c19.5,0,36.8-9.4,47.3-23.9
			c3.7-5.1-4.9-3.8-3-10c0.8-2.6,2-13.1,2.5-15.8c-6.1-0.7-0.9-0.1-5.1-0.2l2,9h-66.9l2-9C132.1,109.2,122.5,108.3,110.5,112.1z"/>
		<path opacity="0.1" fill="#544D47" d="M192,273.5h7.5l13.4-11l10.5,11h22.3v-120l-30.8-19.7l-4.5,61.9L198.2,209
			c0,0-16.4-0.9-17.1,11.5C180.5,231.3,189.5,264.5,192,273.5z"/>
		<g>
			<path fill="#544D47" d="M203.7,109l2,9l3.7,17l2.8,12.6l12.9,58.9l20.6-2.8l25.1-3.4l1.9-0.3l-16.7-74.9
				c-4.8-9.8-21.7-13.7-36.2-15.3C213.6,109.3,207.9,109.1,203.7,109z"/>
			<path fill="#EBE0D8" d="M195.9,231.5c0-4.1,3.4-7.5,7.5-7.5c2.4,0,4.5,1.1,5.9,2.9l58.5-21.6l5.7,15.5l-56.9,21.1
				c0.2,0.7,0.4,1.5,0.4,2.3c0,4.1-3.4,7.5-7.5,7.5c-4.1,0-7.5-3.4-7.5-7.5c0-2,0.8-3.8,2-5.1c-0.2,0-0.4,0-0.6,0
				C199.3,239,195.9,235.6,195.9,231.5z"/>
			<path fill="#EBE0D8" d="M290.9,198.4c-2.6-3.2-7.3-3.7-10.5-1.1c-1.9,1.5-2.8,3.7-2.8,6l-49.8,18.3l-4,17.3l57.5-19.3
				c0.3,0.7,0.7,1.4,1.2,2c2.6,3.2,7.3,3.7,10.5,1.1c3.2-2.6,3.7-7.3,1.1-10.5c-1.2-1.5-3-2.5-4.8-2.7c0.2-0.1,0.3-0.2,0.5-0.4
				C293,206.3,293.5,201.6,290.9,198.4z"/>
			<path fill="#5FB872" d="M221.2,222.5c5.9-2.2,7.7-2.7,7.7-2.7c12.8,2.4,1.1,17.1,1.1,17.1c4.9,2.2,9.5,3.3,13.6,3.6
				c2.3,0.2,4.5,0.1,6.6-0.1h0c4-0.4,7.5-1.6,10.5-3c2.5-1.2,4.7-2.7,6.3-4c2.3-1.9,3.7-3.7,4.2-4.5c3.9-7.3-0.5-28.4-0.5-28.4
				l-45.7,6.1c0,0-3.6,6.6-4.5,9.1C219.6,217.9,218.9,223.4,221.2,222.5z"/>
			<path opacity="0.3" fill="#5FB872" d="M243.6,240.5c2.3,0.2,4.5,0.1,6.6-0.1h0c5-6.1,2.4-16.7,2.4-16.7l-2.3,0.7
				C251.5,232.6,247.1,237.8,243.6,240.5z"/>
			<path opacity="0.3" fill="#5FB872" d="M260.7,237.4c2.5-1.2,4.7-2.7,6.3-4c0.6-5.7-1.5-11.3-1.5-11.3l-2.1,1
				C265,229.3,263.1,234.1,260.7,237.4z"/>
		</g>
		<g>
			<path fill="#4E9655" d="M120.8,121.8c2,2.7,4.3,5.5,6.7,7.8c25.1,23.1,64.3,0,64.3,0l6.3-18v-9.3l-7.1,18
				C191.1,120.2,149,142.2,120.8,121.8z"/>
			<path fill="#5FB872" d="M114.6,29.5v82c0,0,2.5,4.9,6.3,10.2c28.2,20.5,70.3-1.5,70.3-1.5l7.1-18V27.5l-22.1-4.8l-9.7-3.3h-41.9
				C119,19.5,114.6,24,114.6,29.5z"/>
			<path fill="#201600" d="M163.9,74.7c0,1.4,1.1,2.5,2.5,2.5l0,0c1.4,0,2.5-1.1,2.5-2.5l0,0c0-1.4-1.1-2.5-2.5-2.5l0,0
				C165,72.2,163.9,73.3,163.9,74.7L163.9,74.7z"/>
			<path fill="#201600" d="M116.8,74.7c0,1.4,1.1,2.5,2.5,2.5l0,0c1.4,0,2.5-1.1,2.5-2.5l0,0c0-1.4-1.1-2.5-2.5-2.5l0,0
				C117.9,72.2,116.8,73.3,116.8,74.7L116.8,74.7z"/>
			<polygon fill="#403126" points="195.9,77.9 195.9,77.9 195.9,61.5 210,60.3 210.7,62 			"/>
			<path fill="#4E9655" d="M123.8,71.1v21.5h21.9c0.4-2.6,2.6-4.5,5.3-4.5c2.7,0,4.9,2,5.3,4.5h5.3V71.1H123.8z"/>
			<path fill="#403126" d="M145.8,92.6h10.5c-0.4-2.6-2.6-4.5-5.3-4.5C148.4,88.1,146.1,90,145.8,92.6z"/>
			<rect x="123.8" y="59.1" fill="#4E9655" width="37.8" height="12"/>
			<path fill="#403126" d="M155.7,65.1c0,3.3,2.7,6,6,6h12c3.3,0,6-2.7,6-6l0,0c0-3.3-2.7-6-6-6h-12
				C158.4,59.1,155.7,61.7,155.7,65.1L155.7,65.1z"/>
			<path fill="#403126" d="M105.5,65.1c0,3.3,2.7,6,6,6h12c3.3,0,6-2.7,6-6l0,0c0-3.3-2.7-6-6-6h-12
				C108.2,59.1,105.5,61.7,105.5,65.1L105.5,65.1z"/>
			<circle fill="#4E9655" cx="161.6" cy="85.3" r="7.3"/>
			<circle fill="#4E9655" cx="123.8" cy="85.3" r="7.3"/>
			<path fill="#201600" d="M119.7,99.9c0,4,3.3,7.3,7.3,7.3h43c4,0,7.3-3.3,7.3-7.3c0-2-0.8-3.9-2.1-5.2c-1.3-1.3-3.1-2.2-5.2-2.2
				h-43C122.9,92.6,119.7,95.9,119.7,99.9z"/>
			<path fill="#403126" d="M127.1,92.6h10.5c-0.4-2.6-2.6-4.5-5.3-4.5C129.7,88.1,127.4,90,127.1,92.6z"/>
			<polygon fill="#FFFFFF" points="160.7,92.6 155.7,92.6 158.2,97 160.7,101.4 163.3,97 165.8,92.6 			"/>
			<polygon fill="#FFFFFF" points="132.3,92.6 127.3,92.6 129.8,97 132.3,101.4 134.9,97 137.4,92.6 			"/>
			<path fill="#4E9655" d="M124.4,44.3c0,1,0.8,1.8,1.8,1.8h37c1,0,1.8-0.8,1.8-1.8l0,0c0-1-0.8-1.8-1.8-1.8h-37
				C125.2,42.4,124.4,43.2,124.4,44.3L124.4,44.3z"/>
			<path fill="#4E9655" d="M131,35.8c0,1,0.8,1.8,1.8,1.8h23.6c1,0,1.8-0.8,1.8-1.8l0,0c0-1-0.8-1.8-1.8-1.8h-23.6
				C131.8,33.9,131,34.7,131,35.8L131,35.8z"/>
			<path fill="#403126" d="M154.8,18.3c0-1.3,1-2.3,2.3-2.3H195c1.3,0,2.3,1,2.3,2.3l0,0c0,1.3-1,2.3-2.3,2.3h-37.9
				C155.9,20.6,154.8,19.6,154.8,18.3L154.8,18.3z"/>
			<path fill="#403126" d="M166,15c0-1.8,1.5-3.3,3.3-3.3h15.3c1.8,0,3.3,1.5,3.3,3.3l0,0c0,1.8-1.5,3.3-3.3,3.3h-15.3
				C167.4,18.3,166,16.8,166,15L166,15z"/>
			<ellipse fill="#55A35C" cx="141.2" cy="76.7" rx="14.2" ry="9.6"/>
			<path fill="#822A2A" d="M132.3,106.7c0,0.2,0,0.3,0,0.5h28.3c0-0.2,0-0.3,0-0.5c0-3.7-6.4-6.7-14.2-6.7
				C138.7,100,132.3,103,132.3,106.7z"/>
			<line fill="none" x1="200.1" y1="92.6" x2="203.7" y2="109"/>
			<path fill="#403126" d="M210.7,140.4l-21.6,40.2v-143c0-5.5-6.5-8.4-10-10l-20.5-8h7.9h34.3c5.5,0,10,4.5,10,10V140.4z"/>
			<path fill="#5FB872" d="M188.3,92.6c0,0,13.4-6.9,13-12.3c-0.6-8.2,0.2-16.9-4.3-18.8c-2.4-1-16.1,0-16.1,0l-1.2,32.7L188.3,92.6
				z"/>
			<path fill="#4E9655" d="M186.8,76.6v-5.4c0-0.1,0-0.3,0-0.4c0-0.1,0-0.2,0-0.3c0-0.8,0.6-1.4,1.4-1.4h5.1c0.8,0,1.4,0.6,1.4,1.4
				c0,0.8-0.6,1.4-1.4,1.4h-3.4v2.2h0c1.7,0,3.1,1.4,3.1,3.1c0,1.7-1.4,3.1-3.1,3.1c-1.7,0-3.1-1.4-3.1-3.1
				C186.7,77,186.7,76.8,186.8,76.6z"/>
		</g>
	</g>
	<path fill="#5D4837" d="M196.7,317.8l6.7-4.7c0,0-0.9-4-5.2-3.2C193.9,310.7,196.7,317.8,196.7,317.8z"/>
	<path fill="#5D4837" d="M181.3,315.2l6.7-4.7c0,0-0.9-4-5.2-3.2C178.5,308.1,181.3,315.2,181.3,315.2z"/>
	<path fill="#5D4837" d="M170.5,312.7l6.7-4.7c0,0-0.9-4-5.2-3.2C167.7,305.6,170.5,312.7,170.5,312.7z"/>
</g>
<g>
	<path fill="#F38031" d="M81.2,280.3c-0.6,0-1.2,0-1.8,0c-17-3.1-33.2-8.8-49.9-13.1c-2.2-0.5-3.1-1.9-3.3-4.1
		c-1.7-18.6-3.3-37.1-5-55.7c-1.6-16.9-2.9-33.9-4.6-50.8c-0.5-5-0.5-10.1-0.8-15.1c0-0.8,0.2-1.6-0.3-2.4c0-1.8,0-3.7,0-5.5
		c1.2-1,2.6-1,4-1c40.3,0,80.6,0,120.9,0c1.7,0,3.5-0.2,4.6,1.6c0,1,0,2,0,3c-0.7,4.7-0.6,9.4-0.9,14.2c-0.5,8.2-1.5,16.3-2.1,24.5
		c-0.8,10.4-1.9,20.8-2.8,31.2c-1.1,12.6-2.2,25.2-3.4,37.8c-0.5,5.7-1.1,11.5-1.4,17.3c-0.2,2.6-1.2,4.3-3.6,4.9
		c-14.9,4.1-29.8,8.5-44.9,12.3C84.4,279.9,82.7,279.8,81.2,280.3z"/>
	<path fill="#F79B35" d="M80,206.8c0-19.6,0.1-39.1-0.1-58.7c0-2.8,0.8-3.6,3.6-3.5c15.3,0.1,30.6,0.2,45.9,0c3.1,0,3.9,1,3.5,3.8
		c-0.8,7.7-1.6,15.4-2.3,23.1c-0.5,5.3-0.9,10.6-1.3,15.9c-0.8,8.5-1.6,17-2.3,25.5c-0.5,5.3-0.8,10.6-1.3,16c-0.8,9-1.6,18-2.4,27
		c-0.1,1.1-0.7,1.6-1.7,1.8c-13,3.5-26.1,7.1-39.1,10.7c-2.9,0.8-2.4-1.2-2.4-2.7c0-15.5,0-31,0-46.5C80,215.1,80,211,80,206.8z"/>
	<path fill="#EBECEC" d="M76.8,206.1c0,14-0.1,28,0.1,42c0,3-0.8,3.3-3.4,2.5c-8-2.4-16.2-4.6-24.3-6.8c-1.5-0.4-2.5-0.9-2.6-2.7
		c-0.5-7-1.2-13.9-1.8-20.9c-0.2-1.7,0-2.9,2.2-2c0.2,0.1,0.4,0.1,0.6,0.1c7.4,1.1,7.4,1.1,8.1,8.5c0.1,1.5,0.8,2,2.1,2.5
		c8,2.5,7.8,2.5,7.5-5.8c-0.6-16.2-1.2-32.4-1.7-48.6c-0.1-4-0.3-8.1-0.5-12.1c-0.1-1.6,0.5-2.1,2.1-2.1c3,0.1,6.1,0.2,9.1,0
		c2.2-0.1,2.7,0.6,2.7,2.7C76.8,177.6,76.8,191.9,76.8,206.1z"/>
	<path fill="#FEFEFE" d="M83.1,185.1c0-7.3,0.1-14.6,0-21.9c0-2,0.5-2.6,2.5-2.6c10.9,0.1,21.9,0.1,32.8,0c1.9,0,2.5,0.6,2.2,2.4
		c-0.5,3.6-0.9,7.2-1,10.9c-0.1,1.9-0.8,2.4-2.6,2.4c-5.7,0-11.4,0.2-17,0.2c-1.8,0-2.5,0.6-2.5,2.4c0,3.9-0.2,7.9-0.5,11.8
		c-0.2,2.1,0.4,2.8,2.6,2.8c5.3-0.2,10.5,0,15.8-0.1c1.9,0,2.5,0.5,2.3,2.4c-1.4,15.2-2.8,30.5-4.1,45.7c-0.1,1.4-0.8,1.9-2,2.2
		c-8.8,2.4-17.6,4.8-26.3,7.3c-1.6,0.4-2.2,0.1-2.2-1.7c0.1-4.3,0.1-8.5,0-12.8c0-1.6,0.7-2.1,2-2.4c4.8-1.2,9.6-2.5,14.4-3.6
		c1.8-0.4,2.4-1.2,2.6-3c0.4-5.7,1-11.3,1.5-16.9c0.2-1.8-0.4-2.3-2.2-2.2c-5.1,0.4-10.3,0.6-15.5,1.1c-2.2,0.2-3.1-0.1-3-2.6
		C83.2,199.7,83.1,192.4,83.1,185.1z"/>
</g>
</svg>
