<?xml version="1.0" encoding="utf-8"?>
<!-- Generator: Adobe Illustrator 21.0.1, SVG Export Plug-In . SVG Version: 6.00 Build 0)  -->
<svg version="1.1" id="OBJECTS" xmlns="http://www.w3.org/2000/svg" xmlns:xlink="http://www.w3.org/1999/xlink" x="0px" y="0px"
	 viewBox="0 0 422 241" enable-background="new 0 0 422 241" xml:space="preserve">
<g>
	<path fill="#FE7C00" d="M398.6,129.4c-1.5,18.8-8.5,37.1-19.9,52.1c-20.2,26.6-53.7,41.6-87,42.2c-33.4,0.6-66.2-12.5-92.2-33.4
		c10.8,8.7,51.7,17.6,63.4,5.1c6.4-6.8,1.4-18.4-6.2-23.7c-15.8-10.9-36.9-5.9-55.8-2.8C151,177,98.6,168.3,54.2,144.6
		c17.1,7.2,38,11.6,56.1,5.9c1.8-0.6,3.7-1.3,4.7-3c1.6-2.9-0.9-6.6-4-7.8c-13.7-5.7-32.1-3.4-46.7-5.7c-7.7-1.2-15.4-2.9-22.6-6
		c-6.4-2.8-14.7-9.2-17.7-12c25.8,14.5,51.6,11.8,77.3,6.3c8.6-1.8,17.2-4.5,26-4.3c8.8,0.2,18.2,4.1,22.1,12
		c3.9,7.9-0.9,19.6-9.7,20.2c0.4-0.1,11.9,5.1,27.1,1.8c19.3-4.3,48.4-35.8,23.5-45.8c-4.3-1.8-9,1.7-13.3,3.4
		c-9.9,4-22.2,1.1-29.2-7.1c12.8,8.7,35.4,1.2,31.4-12.7c-4.3-15.3-39.9,1.6-48.1,4.3c-20,6.5-41.3,12.1-62.5,11.6
		c-21.6-0.6-42.6-10.3-61.4-20.3c45.5,17.2,66.8,7.8,99-0.6c6-1.5,13.3-7.4,9.5-12.2c-7.8-5.2-18-1.4-27.3-0.4
		c-9.3,1-21.6-5.3-18.7-14.2c11,11.8,26.2,1.1,39.1-3.7c19.5-7.1,42.5-7.7,59.9,3.6c8,5.2,14.7,12.8,23.7,16.2
		c9,3.4,21.8-0.3,23-9.8c1-8.3-7.4-14.9-15.6-16.6c-8.2-1.7-16.8-0.5-24.9-2.6c-8.1-2.2-15.9-10-13.4-18
		c4.9,6.8,14.8,11.3,23.1,10.4c8.3-0.8,16.2-3.9,23.8-7.4c44.3-20.1,99-34.2,139.6-6.8C384.5,48.2,402.1,85.6,398.6,129.4z"/>
	<path fill="#FEAC00" d="M397.5,102.2c3.5,24.6,2.1,56.7-22.1,75.5c-12.7,9.9-28.6,14.9-44.7,12.6c-7.4-1-14.6-3.6-22.1-3.8
		c-7.5-0.2-15.8,2.5-19.3,9.1c1.8-8.1,7.2-15.4,14.3-19.7c6.2-3.7,14-5.3,18.5-11c7.6-9.5,0.7-24.7-10.1-30.4
		c-16.8-9-37.5-2.2-54.9,5.5c-17.4,7.7-36.5,16.6-54.8,11.3c9.2-1.3,18.7-2.6,26.9-7.1c8.2-4.4,15-12.6,15.1-21.9
		c0.1-7.3-4.3-14.5-10.8-17.7c-6.5-3.3-14.9-2.5-20.7,1.9c1.7-9.8,10.6-17.9,20.6-18.7c9.2-0.7,18.3,4.3,27.5,3.1
		c9.5-1.2,17.5-9.6,18.2-19.1c0.7-9.5-6-19.1-15.1-21.6c-12.5-3.5-27.8,4.5-38.1-3.4c13.5,6,27.5-6,39.9-14.2
		C323.9-5.7,389.3,43.4,397.5,102.2z"/>
	<path fill="#FED300" d="M396.9,107.8c0.4,9,0.8,18.3-2.1,26.9c-3.3,9.5-11.3,17.4-21.9,17.3c-5.7-0.1-11.2-2.4-16.8-3.5
		c-5.6-1-12.3-0.3-15.8,4.3c1.4-6.1,6.1-11.3,12.1-13.1c3.2-1,7.1-1.3,9.2-4c2.5-3.3,0.8-8-1.3-11.6c-3.4-5.9-7.6-11.4-13.3-15
		c-5.7-3.7-13-5.2-19.4-3c-6.4,2.3-11,8-17.1,11.1c-9.7,4.9-22.8,1.6-29-7.4c11,4.5,24.4,2.5,33.7-4.8c4.5-3.5,8.2-8.6,8.6-14.2
		c0.4-5.7-3.4-11.8-9.1-12.6c-5.4-0.8-10.3,3.1-14.1,7c7.8-18,27.3-30.3,46.9-29.6c34.6,1.3,53.8,37.7,51.1,69"/>
</g>
</svg>
