<?xml version="1.0" encoding="utf-8"?>
<!-- Generator: Adobe Illustrator 21.0.1, SVG Export Plug-In . SVG Version: 6.00 Build 0)  -->
<svg version="1.1" id="Слой_1" xmlns="http://www.w3.org/2000/svg" xmlns:xlink="http://www.w3.org/1999/xlink" x="0px" y="0px"
	 viewBox="0 0 1275 418" enable-background="new 0 0 1275 418" xml:space="preserve">
<g>
	<path fill="#F3E2C8" d="M635,362.7h640v-68.9h-3c-0.6,0-1-0.4-1-1v-5.7c0-0.6-0.4-1-1-1h-32.8c-0.6,0-1,0.4-1,1v7.2
		c0,0.6-0.4,1-1,1h-24.5c-0.6,0-1-0.4-1-1v-7.6c0-0.6-0.4-1-1-1h-35c-0.6,0-1,0.4-1,1v7c0,0.6-0.4,1-1,1H1138c-0.6,0-1-0.4-1-1v-5.7
		c0-0.6-0.4-1-1-1h-32.8c-0.6,0-1,0.4-1,1v6.1c0,0.6-0.4,1-1,1h-38.5c-0.6,0-1-0.4-1-1v-5.1c0-0.6-0.4-1-1-1h-30.3c-0.6,0-1,0.4-1,1
		v5.5c0,0.6-0.4,1-1,1h-41.8c-0.6,0-1-0.4-1-1v-7.4c0-0.6-0.4-1-1-1h-32c-0.6,0-1,0.4-1,1v7.4c0,0.6-0.4,1-1,1h-39.3
		c-0.6,0-1-0.4-1-1v-8c0-0.6-0.4-1-1-1h-36c-0.6,0-1,0.4-1,1v7c0,0.6-0.4,1-1,1h-43.8c-0.6,0-1-0.4-1-1v-7.8c0-0.6-0.4-1-1-1h-31.3
		c-0.6,0-1,0.4-1,1v6.1c0,0.6-0.4,1-1,1h-46.3c-0.6,0-1-0.4-1-1v-8.2c0-0.6-0.4-1-1-1h-29.8c-0.6,0-1,0.4-1,1v8.2c0,0.6-0.4,1-1,1
		h-38c-0.6,0-1-0.4-1-1v-7.6c0-0.6-0.4-1-1-1h-24.2c-0.6,0-1,0.5-1,1.1l0.6,8.5c0,0.6-0.4,1.1-1,1.1H635V362.7z"/>
	<g opacity="0.5">
		<path fill="#FFF2DE" d="M737.8,346.9H669c-1.1,0-2-0.9-2-2v-22.4c0-1.1,0.9-2,1.9-2l70.5-1.9c1.2,0,2.1,1,2,2.1l-1.7,24.3
			C739.7,346,738.8,346.9,737.8,346.9z"/>
		<path fill="#FFF2DE" d="M1086.3,354.5H1039c-1.1,0-2-0.9-2-2v-34.8c0-1.1,0.8-1.9,1.9-2l48.6-2.7c1.2-0.1,2.2,0.9,2.1,2.1
			l-1.3,37.5C1088.3,353.7,1087.4,354.5,1086.3,354.5z"/>
		<path fill="#FFF2DE" d="M844,323.9h-46.7c-1.1,0-2-0.9-2-2v-12.7c0-1.1,0.9-2,2-2H844c1.1,0,2,0.9,2,2v12.7
			C846,323,845.1,323.9,844,323.9z"/>
		<path fill="#FFF2DE" d="M967.6,340.9H921c-1.1,0-2-0.9-2-2v-12.7c0-1.1,0.9-2,2-2h46.7c1.1,0,2,0.9,2,2v12.7
			C969.6,340,968.8,340.9,967.6,340.9z"/>
		<path fill="#FFF2DE" d="M1180,321.2h-22.3c-1.1,0-2-0.9-2-2v-11.3c0-1.1,0.9-2,2-2h22.3c1.1,0,2,0.9,2,2v11.3
			C1182,320.3,1181.1,321.2,1180,321.2z"/>
		<path fill="#FFF2DE" d="M1205.3,315.2h-26c-1.1,0-2,0.9-2,2v8.7c0,1.1,0.9,2,2,2h26c1.1,0,2-0.9,2-2v-8.7
			C1207.3,316.1,1206.4,315.2,1205.3,315.2z"/>
		<path fill="#FFF2DE" d="M893.3,323.2h-21c-1.1,0-2-0.9-2-2v-9c0-1.1,0.9-2,2-2h21c1.1,0,2,0.9,2,2v9
			C895.3,322.3,894.4,323.2,893.3,323.2z"/>
	</g>
	<g>
		<path fill="#FFF2DE" d="M1061.7,296.8c0,0.6,0.4,1,1,1h38.5c0.6,0,1-0.4,1-1V294c0,0.6-0.4,1-1,1h-38.5c-0.6,0-1-0.4-1-1V296.8z"
			/>
		<path fill="#FFF2DE" d="M1030.5,290.7h30.3c0.6,0,1,0.4,1,1v-2.8c0-0.6-0.4-1-1-1h-30.3c-0.6,0-1,0.4-1,1v2.8
			C1029.5,291.1,1029.9,290.7,1030.5,290.7z"/>
		<path fill="#FFF2DE" d="M952.7,288.8h32c0.6,0,1,0.4,1,1v-2.8c0-0.6-0.4-1-1-1h-32c-0.6,0-1,0.4-1,1v2.8
			C951.7,289.3,952.2,288.8,952.7,288.8z"/>
		<path fill="#FFF2DE" d="M985.7,297.2c0,0.6,0.4,1,1,1h41.8c0.6,0,1-0.4,1-1v-2.8c0,0.6-0.4,1-1,1h-41.8c-0.6,0-1-0.4-1-1V297.2z"
			/>
		<path fill="#FFF2DE" d="M1237.2,288.8h32.8c0.6,0,1,0.4,1,1v-2.8c0-0.6-0.4-1-1-1h-32.8c-0.6,0-1,0.4-1,1v2.8
			C1236.2,289.3,1236.7,288.8,1237.2,288.8z"/>
		<path fill="#FFF2DE" d="M910.5,297.2c0,0.6,0.4,1,1,1h39.3c0.6,0,1-0.4,1-1v-2.8c0,0.6-0.4,1-1,1h-39.3c-0.6,0-1-0.4-1-1V297.2z"
			/>
		<path fill="#FFF2DE" d="M1209.7,297c0,0.6,0.4,1,1,1h24.5c0.6,0,1-0.4,1-1v-2.8c0,0.6-0.4,1-1,1h-24.5c-0.6,0-1-0.4-1-1V297z"/>
		<path fill="#FFF2DE" d="M1137,296.4c0,0.6,0.4,1,1,1h33.8c0.6,0,1-0.4,1-1v-2.8c0,0.6-0.4,1-1,1H1138c-0.6,0-1-0.4-1-1V296.4z"/>
		<path fill="#FFF2DE" d="M1103.2,289.6h32.8c0.6,0,1,0.4,1,1v-2.8c0-0.6-0.4-1-1-1h-32.8c-0.6,0-1,0.4-1,1v2.8
			C1102.2,290.1,1102.7,289.6,1103.2,289.6z"/>
		<path fill="#FFF2DE" d="M1173.7,288.4h35c0.6,0,1,0.4,1,1v-2.8c0-0.6-0.4-1-1-1h-35c-0.6,0-1,0.4-1,1v2.8
			C1172.7,288.8,1173.2,288.4,1173.7,288.4z"/>
		<path fill="#FFF2DE" d="M647.9,295.5l-0.2-2.2c-0.2,0.3-0.5,0.5-0.8,0.5H635v2.8h11.9C647.5,296.5,647.9,296,647.9,295.5z"/>
		<path fill="#FFF2DE" d="M648.3,285.9h24.2c0.6,0,1,0.4,1,1v-2.8c0-0.6-0.4-1-1-1h-24.2c-0.6,0-1,0.5-1,1.1l0.2,2.2
			C647.6,286.1,647.9,285.9,648.3,285.9z"/>
		<path fill="#FFF2DE" d="M673.5,294.5c0,0.6,0.4,1,1,1h38c0.6,0,1-0.4,1-1v-2.8c0,0.6-0.4,1-1,1h-38c-0.6,0-1-0.4-1-1V294.5z"/>
		<path fill="#FFF2DE" d="M873.5,288.2h36c0.6,0,1,0.4,1,1v-2.8c0-0.6-0.4-1-1-1h-36c-0.6,0-1,0.4-1,1v2.8
			C872.5,288.6,872.9,288.2,873.5,288.2z"/>
		<path fill="#FFF2DE" d="M1272,293.8c-0.6,0-1-0.4-1-1v2.8c0,0.6,0.4,1,1,1h3v-2.8H1272z"/>
		<path fill="#FFF2DE" d="M794.5,287.4h31.3c0.6,0,1,0.4,1,1v-2.8c0-0.6-0.4-1-1-1h-31.3c-0.6,0-1,0.4-1,1v2.8
			C793.5,287.8,793.9,287.4,794.5,287.4z"/>
		<path fill="#FFF2DE" d="M826.7,296.1c0,0.6,0.4,1,1,1h43.8c0.6,0,1-0.4,1-1v-2.8c0,0.6-0.4,1-1,1h-43.8c-0.6,0-1-0.4-1-1V296.1z"
			/>
		<path fill="#FFF2DE" d="M745.2,294.5c0,0.6,0.4,1,1,1h46.3c0.6,0,1-0.4,1-1v-2.8c0,0.6-0.4,1-1,1h-46.3c-0.6,0-1-0.4-1-1V294.5z"
			/>
		<path fill="#FFF2DE" d="M714.5,285.3h29.8c0.6,0,1,0.4,1,1v-2.8c0-0.6-0.4-1-1-1h-29.8c-0.6,0-1,0.4-1,1v2.8
			C713.5,285.7,713.9,285.3,714.5,285.3z"/>
	</g>
	<rect x="635" y="330.5" fill="#755D3B" width="640" height="87.5"/>
	<polygon opacity="0.5" fill="#695335" points="845.3,351.5 870.3,369.9 895.3,364.9 895,350.2 	"/>
	<rect x="635" y="330.5" opacity="0.5" fill="#543E1E" width="640" height="31.5"/>
	<rect x="635" y="330.5" fill="#C1C206" width="640" height="24.5"/>
	<path opacity="0.5" fill="#AFB006" d="M1150,330.9c0,0,26,14.3,27.3,14.7c1.3,0.3,47-0.3,47-0.3l12-14.3H1150z"/>
	<g opacity="0.5">
		<polygon fill="#AFB006" points="953.6,349.9 962.1,355 1001.5,355 1003.6,346.2 969.3,338.9 		"/>
		<path fill="#AFB006" d="M704,346.5c-2.2,0.2-7.2,4.8-11,8.5h57.5l-6.6-8.1C744,346.9,707.6,346.2,704,346.5z"/>
	</g>
	<linearGradient id="SVGID_1_" gradientUnits="userSpaceOnUse" x1="1021.3164" y1="199.1846" x2="1170.0533" y2="199.1846">
		<stop  offset="0" style="stop-color:#957549"/>
		<stop  offset="1" style="stop-color:#99794E"/>
	</linearGradient>
	<path fill="url(#SVGID_1_)" d="M1030,329.2c0,0,69.3-42.7,49.3-78c0,0-58-64.7-58-66.7s22-94,22-94l-12.7-19.3l7.3-2l18.7,22.7
		l1.3,89.3c0,0,115.3,86,112,148H1030z"/>
	<path opacity="0.4" fill="#806541" d="M1106.5,290.5l-6-1l-1,30L1085,317c6.5-8,10-42,10-42l-6-1c-1.5,14.5-19,31-19,31l-7.5-1.9
		c-14.9,15.2-32.5,26.1-32.5,26.1h85.3L1106.5,290.5z"/>
	<g>
		<path fill="#B6BA25" d="M874.6,329.5c11.4-12.4-6.5-20.5-10.2-16.3c1-17.7-19.6-13.5-20.9-6.5c-5.6-1.7-18,0.2-17.4,13.6
			c-5.3-4.9-17.5-2.9-13.3,9.2H874.6z"/>
		<path fill="#A0A321" d="M803.5,329.5c-7.8-8.4,4.4-14,6.9-11.1c-0.7-12,13.4-9.2,14.2-4.4c3.8-1.2,12.3,0.2,11.9,9.3
			c3.6-3.3,12-2,9,6.3H803.5z"/>
	</g>
	<rect x="635" y="329" fill="#CDE000" width="640" height="3.9"/>
	<g>
		<path fill="#CDE000" d="M651.5,330.5c-6.8-9.4-1.1-7.4,0.3-4.4c9-5,7.8,1.4,4,3.9L651.5,330.5z"/>
		<path fill="#CDE000" d="M774.9,330.5c-6.8-9.4-1.1-7.4,0.3-4.4c9-5,7.8,1.4,4,3.9L774.9,330.5z"/>
		<path fill="#CDE000" d="M1016.1,330.5c-6.8-9.4-1.1-7.4,0.3-4.4c9-5,7.8,1.4,4,3.9L1016.1,330.5z"/>
		<path fill="#CDE000" d="M908.7,330.3c-5.8-6.8,5.5-8.5,3.3-1L908.7,330.3z"/>
		<path fill="#CDE000" d="M1205.2,330.3c-5.8-6.8,5.5-8.5,3.3-1L1205.2,330.3z"/>
		<path fill="#CDE000" d="M1146.6,330.8c-6.3-9.9,6-12.5,3.6-1.5L1146.6,330.8z"/>
	</g>
	<path opacity="0.5" fill="#695335" d="M707.8,393l23.2,21.9c0.4,0.4,1,0.4,1.3,0l32.7-28.9c0.4-0.3,0.9-0.3,1.3-0.1l5,3.7
		c0.4,0.3,0.9,0.3,1.3-0.1l12.1-11.2c0.5-0.4,0.4-1.2-0.1-1.6l-17.3-10.9c-0.4-0.2-0.8-0.2-1.2,0.1l-9.2,7.7c-0.3,0.3-0.9,0.3-1.2,0
		l-13.7-9.8c-0.4-0.3-0.9-0.2-1.2,0l-32.9,27.5C707.4,391.8,707.4,392.5,707.8,393z"/>
	<path opacity="0.5" fill="#695335" d="M1225.5,418l-0.2-10.1c0,0-35.7-10.3-38.7-10.7c-2-0.2-15.6,12.3-24.5,20.8H1225.5z"/>
	<path opacity="0.5" fill="#695335" d="M965.5,386.9l-7.4,15.2c-0.5,1.1,0,2.4,1.2,2.8l19.4,6.1c1,0.3,2-0.2,2.4-1.1l6.1-12.9
		c0.5-1,0-2.2-1-2.7l-18.1-8.3C967.1,385.5,965.9,386,965.5,386.9z"/>
	<path fill="#FFFFFF" d="M1115.3,163.9h79.3c0,0-0.7-11.3-14-11.3c9.3-19.3-19.3-24.7-25.3-14.7c-4-9.3-22.7,3.3-16.7,10.7
		C1120.6,145.2,1113.3,159.9,1115.3,163.9z"/>
	<path opacity="0.2" fill="#695335" d="M958.5,302.7l-1.8,7.5l10.2,2.4l2.1-8.7C969,303.9,959.7,301.2,958.5,302.7z"/>
	<g>
		<path opacity="0.2" fill="#695335" d="M686.6,307.4l-0.4,6.3l8.5,0.5l0.5-7.3C695.2,306.9,687.4,306,686.6,307.4z"/>
		<path opacity="0.2" fill="#695335" d="M696.2,303.4l-0.3,4.9l6.7,0.4l0.4-5.7C702.9,303.1,696.7,302.4,696.2,303.4z"/>
		<path opacity="0.2" fill="#695335" d="M699.4,310.8l-0.3,4.9l6.7,0.4l0.4-5.7C706.1,310.4,700,309.7,699.4,310.8z"/>
	</g>
	<path fill="#C1C228" d="M1140.9,60.8c15.7-19-11.6-22.8-17.2-10.8c0.7-20.2-21.9-17.4-22.3-3.7c-5.1-7.1-12.6-6.5-17.3-3.9
		c1-8.8-3.2-11.9-8-11.6c-5.3-2-13.4-0.1-16.1,5.7c0.6-19.1-20.7-16.5-21.1-3.5c-4.8-6.7-12-6.2-16.4-3.6
		c2.1-18.6-20.1-10.4-19.7,1.5c-8.1-17.3-25.9-5.3-20.4,6.5c-12.4-6.4-21.4,8.7-16.5,11.5c-20.5,7.9-8.7,35.9,6.4,22.5
		c0.9,22.6,22.6,20.5,26.5,9.4c5.5,7.1,11.2,7.2,15.5,4.5c3,5.4,9.5,7.9,16.7,1.5c0.9,23.9,23.9,21.6,28.1,9.9
		c8.2,10.5,16.6,6.6,21.3,0c5.1,2.6,11.6,2.2,15.6-1.6c4.1,21.1,25.5,9,27.6,0.5c17.6,12.9,24.1-5,17-17
		C1158.7,81.1,1161.2,63.4,1140.9,60.8z"/>
	<path fill="#B9BA26" d="M1140.7,78.5c18,2.6,20.5-15.1,0.2-17.7c15.7-19-11.6-22.8-17.2-10.8c0.1-2.2-0.2-4.2-0.6-5.9
		c-46.7,7.7-102.3,21.3-147.9,38.3c6.2,10.3,20.5,7.2,23.7-1.6c5.5,7.1,11.2,7.2,15.5,4.5c3,5.4,9.5,7.9,16.7,1.5
		c0.9,23.9,23.9,21.6,28.1,9.9c8.2,10.5,16.6,6.6,21.3,0c5.1,2.6,11.6,2.2,15.6-1.6c4.1,21.1,25.5,9,27.6,0.5
		C1141.3,108.5,1147.8,90.6,1140.7,78.5z"/>
	<linearGradient id="SVGID_2_" gradientUnits="userSpaceOnUse" x1="1107.4824" y1="201.5179" x2="1193.4824" y2="201.5179">
		<stop  offset="0" style="stop-color:#957549"/>
		<stop  offset="1" style="stop-color:#99794E"/>
	</linearGradient>
	<path fill="url(#SVGID_2_)" d="M1107.5,232.5c0,0,48.5-16,54.5-49l-13-19l5-0.5l10.5,13l24-20l5,2l-24.5,22.5
		c0,0-12.5,50.5-45.5,64.5L1107.5,232.5z"/>
	<g>
		<path fill="#C1C228" d="M1112.8,165.1c-14.3,8.5-5.9,22.5,10,12.6c-0.2,22.5,21.3,9.5,18.4-2.2c11.1,14.7,25.5-0.2,17.9-10.2
			c13,3.5,18.5-12.5,13.2-14.2c17.8-11.6,1-35.6-10.6-19.9c-5.3-21.1-25.4-14.8-26.9-3.5c-15-12.6-23.2,8.3-19.8,15.5
			C1095.2,144.3,1100.9,160.6,1112.8,165.1z"/>
		<path fill="#DADB2D" d="M1122.4,158.2c-17-6.1-4.3-9.6-2-5.4C1124.7,144.5,1125.6,152,1122.4,158.2z"/>
		<path fill="#B9BA26" d="M1172.4,151.2c-1.7,2.8-11.7,5.7-12.5,1.4c-15.9,22.7-32.3,9.9-32.3,9.9c-4.7,14-16.7,9.7-14.8,2.6
			c-14.3,8.5-5.9,22.5,10,12.6c-0.2,22.5,21.3,9.5,18.4-2.2c11.1,14.7,25.5-0.2,17.9-10.2C1172.1,168.9,1177.6,152.8,1172.4,151.2z"
			/>
	</g>
	<g>
		<path fill="#C1C228" d="M1233.5,149.8c16.2,3.7,12.5,19.6-5.7,15.1c7,21.3-17.4,15.6-18.2,3.5c-6.1,17.4-24.4,7.6-20.2-4.3
			c-11.3,7.3-21.4-6.3-16.9-9.4c-20.4-5.6-11.8-33.6,4-22.2c-1.3-21.7,19.7-21.8,24.5-11.6c10.4-16.5,24.7,0.8,23.6,8.7
			C1244,124.6,1243.5,141.9,1233.5,149.8z"/>
		<path fill="#DADB2D" d="M1204,145.2c11.8-13.7-1-10.5-0.9-5.7C1195.2,134.5,1198.1,141.5,1204,145.2z"/>
		<path fill="#B9BA26" d="M1172.5,154.7c2.5,2.1,12.8,1.8,12.3-2.4c22,16.8,33.8-0.5,33.8-0.5c8.7,11.9,18.8,4.1,14.9-2
			c16.2,3.7,12.5,19.6-5.7,15.1c7,21.3-17.4,15.6-18.2,3.5c-6.1,17.4-24.4,7.6-20.2-4.3C1178.2,171.5,1168,157.8,1172.5,154.7z"/>
	</g>
	<path opacity="0.4" fill="#806541" d="M1104,220.7c-11.7-11.3-22.9-20.9-31.2-27.8l-3.8,7.1c0,0,25,25,26.5,25
		C1096.2,225,1100,222.9,1104,220.7z"/>
	<path opacity="0.4" fill="#806541" d="M1040,174l6-21l-2.5-0.5l-3,8.5l-5.5-3l4-21l-5.4-5.4c-4,17.1-8.3,35.2-10.6,45.2L1040,174z"
		/>
	<polygon opacity="0.4" fill="#806541" points="1118.5,264 1113,266.5 1125,303.5 1144.5,296.5 1139,281.5 1126,281.5 	"/>
	<path fill="#B6BA25" d="M1182.1,329.5c11.4-12.4-6.5-20.5-10.2-16.3c1-17.7-19.6-13.5-20.9-6.5c-5.6-1.7-18,0.2-17.4,13.6
		c-5.3-4.9-17.5-2.9-13.3,9.2H1182.1z"/>
	<path opacity="0.2" d="M635,418h640v-19.2c-143.7,0-421.5-8.7-640,0V418z"/>
</g>
<g>
	<path fill="#F3E2C8" d="M636,362.7H-4v-68.9h3c0.6,0,1-0.4,1-1v-5.7c0-0.6,0.4-1,1-1h32.8c0.6,0,1,0.4,1,1v7.2c0,0.6,0.4,1,1,1
		h24.5c0.6,0,1-0.4,1-1v-7.6c0-0.6,0.4-1,1-1h35c0.6,0,1,0.4,1,1v7c0,0.6,0.4,1,1,1H133c0.6,0,1-0.4,1-1v-5.7c0-0.6,0.4-1,1-1h32.8
		c0.6,0,1,0.4,1,1v6.1c0,0.6,0.4,1,1,1h38.5c0.6,0,1-0.4,1-1v-5.1c0-0.6,0.4-1,1-1h30.3c0.6,0,1,0.4,1,1v5.5c0,0.6,0.4,1,1,1h41.8
		c0.6,0,1-0.4,1-1v-7.4c0-0.6,0.4-1,1-1h32c0.6,0,1,0.4,1,1v7.4c0,0.6,0.4,1,1,1h39.3c0.6,0,1-0.4,1-1v-8c0-0.6,0.4-1,1-1h36
		c0.6,0,1,0.4,1,1v7c0,0.6,0.4,1,1,1h43.8c0.6,0,1-0.4,1-1v-7.8c0-0.6,0.4-1,1-1h31.3c0.6,0,1,0.4,1,1v6.1c0,0.6,0.4,1,1,1h46.3
		c0.6,0,1-0.4,1-1v-8.2c0-0.6,0.4-1,1-1h29.8c0.6,0,1,0.4,1,1v8.2c0,0.6,0.4,1,1,1h38c0.6,0,1-0.4,1-1v-7.6c0-0.6,0.4-1,1-1h24.2
		c0.6,0,1,0.5,1,1.1l-0.6,8.5c0,0.6,0.4,1.1,1,1.1H636V362.7z"/>
	<g opacity="0.5">
		<path fill="#FFF2DE" d="M533.2,346.9H602c1.1,0,2-0.9,2-2v-22.4c0-1.1-0.9-2-1.9-2l-70.5-1.9c-1.2,0-2.1,1-2,2.1l1.7,24.3
			C531.3,346,532.2,346.9,533.2,346.9z"/>
		<path fill="#FFF2DE" d="M184.7,354.5H232c1.1,0,2-0.9,2-2v-34.8c0-1.1-0.8-1.9-1.9-2l-48.6-2.7c-1.2-0.1-2.2,0.9-2.1,2.1l1.3,37.5
			C182.7,353.7,183.6,354.5,184.7,354.5z"/>
		<path fill="#FFF2DE" d="M427,323.9h46.7c1.1,0,2-0.9,2-2v-12.7c0-1.1-0.9-2-2-2H427c-1.1,0-2,0.9-2,2v12.7
			C425,323,425.9,323.9,427,323.9z"/>
		<path fill="#FFF2DE" d="M303.4,340.9H350c1.1,0,2-0.9,2-2v-12.7c0-1.1-0.9-2-2-2h-46.7c-1.1,0-2,0.9-2,2v12.7
			C301.4,340,302.2,340.9,303.4,340.9z"/>
		<path fill="#FFF2DE" d="M91,321.2h22.3c1.1,0,2-0.9,2-2v-11.3c0-1.1-0.9-2-2-2H91c-1.1,0-2,0.9-2,2v11.3
			C89,320.3,89.9,321.2,91,321.2z"/>
		<path fill="#FFF2DE" d="M65.7,315.2h26c1.1,0,2,0.9,2,2v8.7c0,1.1-0.9,2-2,2h-26c-1.1,0-2-0.9-2-2v-8.7
			C63.7,316.1,64.6,315.2,65.7,315.2z"/>
		<path fill="#FFF2DE" d="M377.7,323.2h21c1.1,0,2-0.9,2-2v-9c0-1.1-0.9-2-2-2h-21c-1.1,0-2,0.9-2,2v9
			C375.7,322.3,376.6,323.2,377.7,323.2z"/>
	</g>
	<g>
		<path fill="#FFF2DE" d="M209.3,296.8c0,0.6-0.4,1-1,1h-38.5c-0.6,0-1-0.4-1-1V294c0,0.6,0.4,1,1,1h38.5c0.6,0,1-0.4,1-1V296.8z"/>
		<path fill="#FFF2DE" d="M240.5,290.7h-30.3c-0.6,0-1,0.4-1,1v-2.8c0-0.6,0.4-1,1-1h30.3c0.6,0,1,0.4,1,1v2.8
			C241.5,291.1,241.1,290.7,240.5,290.7z"/>
		<path fill="#FFF2DE" d="M318.3,288.8h-32c-0.6,0-1,0.4-1,1v-2.8c0-0.6,0.4-1,1-1h32c0.6,0,1,0.4,1,1v2.8
			C319.3,289.3,318.8,288.8,318.3,288.8z"/>
		<path fill="#FFF2DE" d="M285.3,297.2c0,0.6-0.4,1-1,1h-41.8c-0.6,0-1-0.4-1-1v-2.8c0,0.6,0.4,1,1,1h41.8c0.6,0,1-0.4,1-1V297.2z"
			/>
		<path fill="#FFF2DE" d="M33.8,288.8H1c-0.6,0-1,0.4-1,1v-2.8c0-0.6,0.4-1,1-1h32.8c0.6,0,1,0.4,1,1v2.8
			C34.8,289.3,34.3,288.8,33.8,288.8z"/>
		<path fill="#FFF2DE" d="M360.5,297.2c0,0.6-0.4,1-1,1h-39.3c-0.6,0-1-0.4-1-1v-2.8c0,0.6,0.4,1,1,1h39.3c0.6,0,1-0.4,1-1V297.2z"
			/>
		<path fill="#FFF2DE" d="M61.3,297c0,0.6-0.4,1-1,1H35.8c-0.6,0-1-0.4-1-1v-2.8c0,0.6,0.4,1,1,1h24.5c0.6,0,1-0.4,1-1V297z"/>
		<path fill="#FFF2DE" d="M134,296.4c0,0.6-0.4,1-1,1H99.3c-0.6,0-1-0.4-1-1v-2.8c0,0.6,0.4,1,1,1H133c0.6,0,1-0.4,1-1V296.4z"/>
		<path fill="#FFF2DE" d="M167.8,289.6H135c-0.6,0-1,0.4-1,1v-2.8c0-0.6,0.4-1,1-1h32.8c0.6,0,1,0.4,1,1v2.8
			C168.8,290.1,168.3,289.6,167.8,289.6z"/>
		<path fill="#FFF2DE" d="M97.3,288.4h-35c-0.6,0-1,0.4-1,1v-2.8c0-0.6,0.4-1,1-1h35c0.6,0,1,0.4,1,1v2.8
			C98.3,288.8,97.8,288.4,97.3,288.4z"/>
		<path fill="#FFF2DE" d="M623.1,295.5l0.2-2.2c0.2,0.3,0.5,0.5,0.8,0.5H636v2.8h-11.9C623.5,296.5,623.1,296,623.1,295.5z"/>
		<path fill="#FFF2DE" d="M622.7,285.9h-24.2c-0.6,0-1,0.4-1,1v-2.8c0-0.6,0.4-1,1-1h24.2c0.6,0,1,0.5,1,1.1l-0.2,2.2
			C623.4,286.1,623.1,285.9,622.7,285.9z"/>
		<path fill="#FFF2DE" d="M597.5,294.5c0,0.6-0.4,1-1,1h-38c-0.6,0-1-0.4-1-1v-2.8c0,0.6,0.4,1,1,1h38c0.6,0,1-0.4,1-1V294.5z"/>
		<path fill="#FFF2DE" d="M397.5,288.2h-36c-0.6,0-1,0.4-1,1v-2.8c0-0.6,0.4-1,1-1h36c0.6,0,1,0.4,1,1v2.8
			C398.5,288.6,398.1,288.2,397.5,288.2z"/>
		<path fill="#FFF2DE" d="M-1,293.8c0.6,0,1-0.4,1-1v2.8c0,0.6-0.4,1-1,1h-3v-2.8H-1z"/>
		<path fill="#FFF2DE" d="M476.5,287.4h-31.3c-0.6,0-1,0.4-1,1v-2.8c0-0.6,0.4-1,1-1h31.3c0.6,0,1,0.4,1,1v2.8
			C477.5,287.8,477.1,287.4,476.5,287.4z"/>
		<path fill="#FFF2DE" d="M444.3,296.1c0,0.6-0.4,1-1,1h-43.8c-0.6,0-1-0.4-1-1v-2.8c0,0.6,0.4,1,1,1h43.8c0.6,0,1-0.4,1-1V296.1z"
			/>
		<path fill="#FFF2DE" d="M525.8,294.5c0,0.6-0.4,1-1,1h-46.3c-0.6,0-1-0.4-1-1v-2.8c0,0.6,0.4,1,1,1h46.3c0.6,0,1-0.4,1-1V294.5z"
			/>
		<path fill="#FFF2DE" d="M556.5,285.3h-29.8c-0.6,0-1,0.4-1,1v-2.8c0-0.6,0.4-1,1-1h29.8c0.6,0,1,0.4,1,1v2.8
			C557.5,285.7,557.1,285.3,556.5,285.3z"/>
	</g>
	
		<rect x="-4" y="330.5" transform="matrix(-1 -4.489488e-11 4.489488e-11 -1 632 748.5)" fill="#755D3B" width="640" height="87.5"/>
	<polygon opacity="0.5" fill="#695335" points="425.7,351.5 400.7,369.9 375.7,364.9 376,350.2 	"/>
	
		<rect x="-4" y="330.5" transform="matrix(-1 -4.489488e-11 4.489488e-11 -1 632 692.5)" opacity="0.5" fill="#543E1E" width="640" height="31.5"/>
	
		<rect x="-4" y="330.5" transform="matrix(-1 -4.489488e-11 4.489488e-11 -1 632 685.5)" fill="#C1C206" width="640" height="24.5"/>
	<path opacity="0.5" fill="#AFB006" d="M121,330.9c0,0-26,14.3-27.3,14.7c-1.3,0.3-47-0.3-47-0.3l-12-14.3H121z"/>
	<g opacity="0.5">
		<polygon fill="#AFB006" points="317.4,349.9 308.9,355 269.5,355 267.4,346.2 301.7,338.9 		"/>
		<path fill="#AFB006" d="M567,346.5c2.2,0.2,7.2,4.8,11,8.5h-57.5l6.6-8.1C527,346.9,563.4,346.2,567,346.5z"/>
	</g>
	
		<linearGradient id="SVGID_3_" gradientUnits="userSpaceOnUse" x1="382.3164" y1="199.1846" x2="531.0533" y2="199.1846" gradientTransform="matrix(-1 0 0 1 632 0)">
		<stop  offset="0" style="stop-color:#957549"/>
		<stop  offset="1" style="stop-color:#99794E"/>
	</linearGradient>
	<path fill="url(#SVGID_3_)" d="M241,329.2c0,0-69.3-42.7-49.3-78c0,0,58-64.7,58-66.7s-22-94-22-94l12.7-19.3l-7.3-2l-18.7,22.7
		l-1.3,89.3c0,0-115.3,86-112,148H241z"/>
	<path opacity="0.4" fill="#806541" d="M164.5,290.5l6-1l1,30L186,317c-6.5-8-10-42-10-42l6-1c1.5,14.5,19,31,19,31l7.5-1.9
		c14.9,15.2,32.5,26.1,32.5,26.1h-85.3L164.5,290.5z"/>
	<g>
		<path fill="#B6BA25" d="M396.4,329.5c-11.4-12.4,6.5-20.5,10.2-16.3c-1-17.7,19.6-13.5,20.9-6.5c5.6-1.7,18,0.2,17.4,13.6
			c5.3-4.9,17.5-2.9,13.3,9.2H396.4z"/>
		<path fill="#A0A321" d="M467.5,329.5c7.8-8.4-4.4-14-6.9-11.1c0.7-12-13.4-9.2-14.2-4.4c-3.8-1.2-12.3,0.2-11.9,9.3
			c-3.6-3.3-12-2-9,6.3H467.5z"/>
	</g>
	
		<rect x="-4" y="329" transform="matrix(-1 -4.489488e-11 4.489488e-11 -1 632 662.0001)" fill="#CDE000" width="640" height="3.9"/>
	<g>
		<path fill="#CDE000" d="M619.5,330.5c6.8-9.4,1.1-7.4-0.3-4.4c-9-5-7.8,1.4-4,3.9L619.5,330.5z"/>
		<path fill="#CDE000" d="M496.1,330.5c6.8-9.4,1.1-7.4-0.3-4.4c-9-5-7.8,1.4-4,3.9L496.1,330.5z"/>
		<path fill="#CDE000" d="M254.9,330.5c6.8-9.4,1.1-7.4-0.3-4.4c-9-5-7.8,1.4-4,3.9L254.9,330.5z"/>
		<path fill="#CDE000" d="M362.3,330.3c5.8-6.8-5.5-8.5-3.3-1L362.3,330.3z"/>
		<path fill="#CDE000" d="M65.8,330.3c5.8-6.8-5.5-8.5-3.3-1L65.8,330.3z"/>
		<path fill="#CDE000" d="M124.4,330.8c6.3-9.9-6-12.5-3.6-1.5L124.4,330.8z"/>
	</g>
	<path opacity="0.5" fill="#695335" d="M563.2,393L540,414.9c-0.4,0.4-1,0.4-1.3,0L506,386.1c-0.4-0.3-0.9-0.3-1.3-0.1l-5,3.7
		c-0.4,0.3-0.9,0.3-1.3-0.1l-12.1-11.2c-0.5-0.4-0.4-1.2,0.1-1.6l17.3-10.9c0.4-0.2,0.8-0.2,1.2,0.1l9.2,7.7c0.3,0.3,0.9,0.3,1.2,0
		l13.7-9.8c0.4-0.3,0.9-0.2,1.2,0l32.9,27.5C563.6,391.8,563.6,392.5,563.2,393z"/>
	<path opacity="0.5" fill="#695335" d="M45.5,418l0.2-10.1c0,0,35.7-10.3,38.7-10.7c2-0.2,15.6,12.3,24.5,20.8H45.5z"/>
	<path opacity="0.5" fill="#695335" d="M305.5,386.9l7.4,15.2c0.5,1.1,0,2.4-1.2,2.8l-19.4,6.1c-1,0.3-2-0.2-2.4-1.1l-6.1-12.9
		c-0.5-1,0-2.2,1-2.7l18.1-8.3C303.9,385.5,305.1,386,305.5,386.9z"/>
	<path fill="#FFFFFF" d="M155.7,163.9H76.4c0,0,0.7-11.3,14-11.3c-9.3-19.3,19.3-24.7,25.3-14.7c4-9.3,22.7,3.3,16.7,10.7
		C150.4,145.2,157.7,159.9,155.7,163.9z"/>
	<path opacity="0.2" fill="#695335" d="M312.5,302.7l1.8,7.5l-10.2,2.4l-2.1-8.7C302,303.9,311.3,301.2,312.5,302.7z"/>
	<g>
		<path opacity="0.2" fill="#695335" d="M584.4,307.4l0.4,6.3l-8.5,0.5l-0.5-7.3C575.8,306.9,583.6,306,584.4,307.4z"/>
		<path opacity="0.2" fill="#695335" d="M574.8,303.4l0.3,4.9l-6.7,0.4l-0.4-5.7C568.1,303.1,574.3,302.4,574.8,303.4z"/>
		<path opacity="0.2" fill="#695335" d="M571.6,310.8l0.3,4.9l-6.7,0.4l-0.4-5.7C564.9,310.4,571,309.7,571.6,310.8z"/>
	</g>
	<path fill="#C1C228" d="M130.1,60.8c-15.7-19,11.6-22.8,17.2-10.8c-0.7-20.2,21.9-17.4,22.3-3.7c5.1-7.1,12.6-6.5,17.3-3.9
		c-1-8.8,3.2-11.9,8-11.6c5.3-2,13.4-0.1,16.1,5.7c-0.6-19.1,20.7-16.5,21.1-3.5c4.8-6.7,12-6.2,16.4-3.6
		c-2.1-18.6,20.1-10.4,19.7,1.5c8.1-17.3,25.9-5.3,20.4,6.5c12.4-6.4,21.4,8.7,16.5,11.5c20.5,7.9,8.7,35.9-6.4,22.5
		c-0.9,22.6-22.6,20.5-26.5,9.4c-5.5,7.1-11.2,7.2-15.5,4.5c-3,5.4-9.5,7.9-16.7,1.5c-0.9,23.9-23.9,21.6-28.1,9.9
		c-8.2,10.5-16.6,6.6-21.3,0c-5.1,2.6-11.6,2.2-15.6-1.6c-4.1,21.1-25.5,9-27.6,0.5c-17.6,12.9-24.1-5-17-17
		C112.3,81.1,109.8,63.4,130.1,60.8z"/>
	<path fill="#B9BA26" d="M130.3,78.5c-18,2.6-20.5-15.1-0.2-17.7c-15.7-19,11.6-22.8,17.2-10.8c-0.1-2.2,0.2-4.2,0.6-5.9
		c46.7,7.7,102.3,21.3,147.9,38.3c-6.2,10.3-20.5,7.2-23.7-1.6c-5.5,7.1-11.2,7.2-15.5,4.5c-3,5.4-9.5,7.9-16.7,1.5
		c-0.9,23.9-23.9,21.6-28.1,9.9c-8.2,10.5-16.6,6.6-21.3,0c-5.1,2.6-11.6,2.2-15.6-1.6c-4.1,21.1-25.5,9-27.6,0.5
		C129.7,108.5,123.2,90.6,130.3,78.5z"/>
	
		<linearGradient id="SVGID_4_" gradientUnits="userSpaceOnUse" x1="468.4824" y1="201.5179" x2="554.4824" y2="201.5179" gradientTransform="matrix(-1 0 0 1 632 0)">
		<stop  offset="0" style="stop-color:#957549"/>
		<stop  offset="1" style="stop-color:#99794E"/>
	</linearGradient>
	<path fill="url(#SVGID_4_)" d="M163.5,232.5c0,0-48.5-16-54.5-49l13-19l-5-0.5l-10.5,13l-24-20l-5,2l24.5,22.5
		c0,0,12.5,50.5,45.5,64.5L163.5,232.5z"/>
	<g>
		<path fill="#C1C228" d="M158.2,165.1c14.3,8.5,5.9,22.5-10,12.6c0.2,22.5-21.3,9.5-18.4-2.2c-11.1,14.7-25.5-0.2-17.9-10.2
			c-13,3.5-18.5-12.5-13.2-14.2c-17.8-11.6-1-35.6,10.6-19.9c5.3-21.1,25.4-14.8,26.9-3.5c15-12.6,23.2,8.3,19.8,15.5
			C175.8,144.3,170.1,160.6,158.2,165.1z"/>
		<path fill="#DADB2D" d="M148.6,158.2c17-6.1,4.3-9.6,2-5.4C146.3,144.5,145.4,152,148.6,158.2z"/>
		<path fill="#B9BA26" d="M98.6,151.2c1.7,2.8,11.7,5.7,12.5,1.4c15.9,22.7,32.3,9.9,32.3,9.9c4.7,14,16.7,9.7,14.8,2.6
			c14.3,8.5,5.9,22.5-10,12.6c0.2,22.5-21.3,9.5-18.4-2.2c-11.1,14.7-25.5-0.2-17.9-10.2C98.9,168.9,93.4,152.8,98.6,151.2z"/>
	</g>
	<g>
		<path fill="#C1C228" d="M37.5,149.8c-16.2,3.7-12.5,19.6,5.7,15.1c-7,21.3,17.4,15.6,18.2,3.5c6.1,17.4,24.4,7.6,20.2-4.3
			c11.3,7.3,21.4-6.3,16.9-9.4c20.4-5.6,11.8-33.6-4-22.2c1.3-21.7-19.7-21.8-24.5-11.6c-10.4-16.5-24.7,0.8-23.6,8.7
			C27,124.6,27.5,141.9,37.5,149.8z"/>
		<path fill="#DADB2D" d="M67,145.2c-11.8-13.7,1-10.5,0.9-5.7C75.8,134.5,72.9,141.5,67,145.2z"/>
		<path fill="#B9BA26" d="M98.5,154.7c-2.5,2.1-12.8,1.8-12.3-2.4c-22,16.8-33.8-0.5-33.8-0.5c-8.7,11.9-18.8,4.1-14.9-2
			c-16.2,3.7-12.5,19.6,5.7,15.1c-7,21.3,17.4,15.6,18.2,3.5c6.1,17.4,24.4,7.6,20.2-4.3C92.8,171.5,103,157.8,98.5,154.7z"/>
	</g>
	<path opacity="0.4" fill="#806541" d="M167,220.7c11.7-11.3,22.9-20.9,31.2-27.8l3.8,7.1c0,0-25,25-26.5,25
		C174.8,225,171,222.9,167,220.7z"/>
	<path opacity="0.4" fill="#806541" d="M231,174l-6-21l2.5-0.5l3,8.5l5.5-3l-4-21l5.4-5.4c4,17.1,8.3,35.2,10.6,45.2L231,174z"/>
	<polygon opacity="0.4" fill="#806541" points="152.5,264 158,266.5 146,303.5 126.5,296.5 132,281.5 145,281.5 	"/>
	<path fill="#B6BA25" d="M88.9,329.5c-11.4-12.4,6.5-20.5,10.2-16.3c-1-17.7,19.6-13.5,20.9-6.5c5.6-1.7,18,0.2,17.4,13.6
		c5.3-4.9,17.5-2.9,13.3,9.2H88.9z"/>
	<path opacity="0.2" d="M636,418H-4v-19.2c143.7,0,421.5-8.7,640,0V418z"/>
</g>
</svg>
